<?xml version="1.0" encoding="utf-8"?>
<!-- Generator: Adobe Illustrator 27.9.0, SVG Export Plug-In . SVG Version: 6.00 Build 0)  -->
<svg version="1.1" xmlns="http://www.w3.org/2000/svg" xmlns:xlink="http://www.w3.org/1999/xlink" x="0px" y="0px"
	 viewBox="0 0 500 500" style="enable-background:new 0 0 500 500;" xml:space="preserve">
<style type="text/css">
	.st0{fill:#E6E6E6;}
	.st1{fill:#27DEBF;}
	.st2{opacity:0.3;}
	.st3{fill:#FFFFFF;}
	.st4{opacity:0.1;}
	.st5{fill:#37474F;}
	.st6{fill:#455A64;}
	.st7{fill:#263238;}
	.st8{opacity:0.15;}
	.st9{fill:#EBEBEB;}
	.st10{fill:#E0E0E0;}
	.st11{fill:#F5F5F5;}
	.st12{opacity:0.5;fill:#FFFFFF;}
	.st13{fill:none;stroke:#27DEBF;stroke-width:0.3365;stroke-linecap:round;stroke-linejoin:round;stroke-miterlimit:10;}
	.st14{opacity:0.2;}
	.st15{opacity:0.5;}
	.st16{fill:#FFA8A7;}
	.st17{fill:#F28F8F;}
	.st18{fill:#F0F0F0;}
	.st19{fill:#FAFAFA;}
	.st20{opacity:0.9;fill:#F0F0F0;}
	.st21{opacity:0.6;fill:#F0F0F0;}
	.st22{opacity:0.5;fill:#F0F0F0;}
	.st23{opacity:0.4;fill:#F0F0F0;}
	.st24{opacity:0.8;fill:#F0F0F0;}
	.st25{opacity:0.25;}
	.st26{opacity:0.35;}
	.st27{opacity:0.9;fill:#FFFFFF;}
	.st28{opacity:0.75;fill:#FFFFFF;}
	.st29{opacity:0.7;fill:#FFFFFF;}
	.st30{opacity:0.6;fill:#FFFFFF;}
	.st31{opacity:0.8;fill:#FFFFFF;}
	.st32{fill:#FFBDA7;}
	.st33{fill:#B16668;}
	.st34{opacity:0.4;}
	.st35{fill:#C9F7EF;}
	.st36{fill-rule:evenodd;clip-rule:evenodd;fill:#27DEBF;}
</style>
	<g id="Floor">
</g>
	<g id="Shadows">
	<ellipse id="Shadow_14_" class="st0" cx="249.45" cy="354.22" rx="58.96" ry="34.04"/>
</g>
	<g id="Plants">
	<g id="Plants_2_">
		<g id="XMLID_920_">
			<g id="XMLID_925_">
				<path id="XMLID_926_" class="st1" d="M421.42,290.95c0,0,2.04-16.37,10.33-29c8.29-12.63,19.57-20.45,30.03-21.16
					c10.46-0.71,18.8,8.99,7.54,15.47c-11.25,6.48-31.19,13.01-40.6,37.61L421.42,290.95z"/>
			</g>
			<g id="XMLID_923_" class="st2">
				<path id="XMLID_924_" d="M421.42,290.95c0,0,2.04-16.37,10.33-29c8.29-12.63,19.57-20.45,30.03-21.16
					c10.46-0.71,18.8,8.99,7.54,15.47c-11.25,6.48-31.19,13.01-40.6,37.61L421.42,290.95z"/>
			</g>
			<g id="XMLID_921_">
				<path id="XMLID_922_" class="st3" d="M424.53,286.73c-0.04-0.01-0.07-0.02-0.11-0.03c-0.28-0.12-0.42-0.45-0.3-0.73
					c11.32-27.04,32.44-38.16,42.02-40.26c0.3-0.07,0.6,0.13,0.66,0.43c0.07,0.3-0.12,0.6-0.43,0.66
					c-9.39,2.06-30.09,12.98-41.23,39.6C425.05,286.64,424.78,286.78,424.53,286.73z"/>
			</g>
		</g>
		<g id="XMLID_909_">
			<g id="XMLID_917_">
				<g id="XMLID_918_">
					<path id="XMLID_919_" class="st1" d="M482.39,278.73c-0.89,2.01-3.09,3.06-5.14,3.88c-2.03,0.82-4.26,1.71-5.37,3.61
						c-2.23,3.84,1.43,9.25-0.96,12.99c-1,1.57-2.87,2.4-4.7,2.72c-1.52,0.28-3.07,0.28-4.62,0.41c-0.74-0.02-1.48-0.07-2.2-0.17
						c-2.12-0.31-4.42-0.41-6.36,0.68c-3.05,1.72-3.99,5.57-5.85,8.55c-2.23,3.56-6.16,5.89-10.29,6.45
						c-2.43,0.32-4.72,1.03-6.42-1.26c-0.81-1.08-1.21-2.4-1.6-3.7c-1.62-5.34-3.23-10.67-4.85-16.01c-0.63-2.07-1.23-4.4-0.2-6.3
						c0.75-1.38,2.19-2.2,3.5-3.07c2.61-1.72,4.93-3.87,6.85-6.33c1.85-2.36,2.73-5.18,4.41-7.52c3.24-4.52,9.05-7.64,14.65-6.7
						c3.22,0.54,6.37,2.35,9.69,2.2c3.23-0.15,6.39-1.01,9.69-0.78c3.45,0.24,6.97,1.7,8.93,4.66
						C482.67,274.71,483.2,276.9,482.39,278.73z"/>
				</g>
			</g>
			<g id="XMLID_914_" class="st4">
				<g id="XMLID_915_">
					<path id="XMLID_916_" d="M482.39,278.73c-0.89,2.01-3.09,3.06-5.14,3.88c-2.03,0.82-4.26,1.71-5.37,3.61
						c-2.23,3.84,1.43,9.25-0.96,12.99c-1,1.57-2.87,2.4-4.7,2.72c-1.52,0.28-3.07,0.28-4.62,0.41c-0.74-0.02-1.48-0.07-2.2-0.17
						c-2.12-0.31-4.42-0.41-6.36,0.68c-3.05,1.72-3.99,5.57-5.85,8.55c-2.23,3.56-6.16,5.89-10.29,6.45
						c-2.43,0.32-4.72,1.03-6.42-1.26c-0.81-1.08-1.21-2.4-1.6-3.7c-1.62-5.34-3.23-10.67-4.85-16.01c-0.63-2.07-1.23-4.4-0.2-6.3
						c0.75-1.38,2.19-2.2,3.5-3.07c2.61-1.72,4.93-3.87,6.85-6.33c1.85-2.36,2.73-5.18,4.41-7.52c3.24-4.52,9.05-7.64,14.65-6.7
						c3.22,0.54,6.37,2.35,9.69,2.2c3.23-0.15,6.39-1.01,9.69-0.78c3.45,0.24,6.97,1.7,8.93,4.66
						C482.67,274.71,483.2,276.9,482.39,278.73z"/>
				</g>
			</g>
			<g id="XMLID_912_">
				<path id="XMLID_913_" class="st3" d="M430.2,307.41c-0.01,0-0.03-0.01-0.04-0.01c-0.26-0.07-0.42-0.34-0.35-0.61
					c8.03-30.11,39.75-34.45,47.18-33.91c0.27,0.02,0.48,0.26,0.46,0.53c-0.02,0.27-0.26,0.48-0.53,0.46
					c-7.26-0.53-38.29,3.72-46.15,33.18C430.7,307.3,430.46,307.45,430.2,307.41z"/>
			</g>
			<g id="XMLID_910_">
				<path id="XMLID_911_" class="st3" d="M465.45,292.16c-0.1-0.02-0.19-0.06-0.26-0.14c-0.08-0.08-8.17-8.06-21.59-6.09
					c-0.27,0.04-0.52-0.15-0.56-0.42c-0.04-0.27,0.15-0.52,0.42-0.56c13.94-2.05,22.35,6.29,22.44,6.37c0.19,0.19,0.19,0.51,0,0.7
					C465.77,292.14,465.61,292.19,465.45,292.16z"/>
			</g>
		</g>
	</g>
</g>
	<g id="Desk_1_">
	<g id="Desk_2_">
		<g id="Table_2_">
			<g id="XMLID_876_">
				<path id="XMLID_878_" class="st5" d="M328.63,290.22v86.14c0,0.71-0.5,1.58-1.12,1.93l-2.38,1.37c-0.62,0.36-1.62,0.36-2.23,0
					l-2.37-1.37c-0.62-0.36-1.12-1.22-1.12-1.93v-86.14c0-0.71,0.5-1,1.12-0.64l2.38,1.37c0.62,0.36,1.62,0.36,2.23,0l2.38-1.37
					C328.13,289.22,328.63,289.51,328.63,290.22z"/>
				<path id="XMLID_877_" class="st6" d="M322.91,379.67l-2.37-1.37c-0.62-0.36-1.12-1.22-1.12-1.93v-86.14c0-0.71,0.5-1,1.12-0.64
					l2.38,1.37c0.62,0.36,1.12,1.22,1.12,1.93l0,86.14C324.02,379.73,323.52,380.02,322.91,379.67z"/>
			</g>
			<g id="XMLID_873_">
				<path id="XMLID_875_" class="st5" d="M429.91,231.72v86.14c0,0.71-0.5,1.58-1.12,1.93l-2.38,1.37c-0.62,0.36-1.62,0.36-2.23,0
					l-2.37-1.37c-0.62-0.36-1.12-1.22-1.12-1.93v-86.14c0-0.71,0.5-1,1.12-0.64l2.38,1.37c0.62,0.36,1.62,0.36,2.23,0l2.38-1.37
					C429.41,230.71,429.91,231,429.91,231.72z"/>
				<path id="XMLID_874_" class="st6" d="M424.18,321.16l-2.37-1.37c-0.62-0.36-1.12-1.22-1.12-1.93v-86.14c0-0.71,0.5-1,1.12-0.64
					l2.38,1.37c0.62,0.36,1.12,1.22,1.12,1.93l0,86.14C425.3,321.23,424.8,321.52,424.18,321.16z"/>
			</g>
			<g id="XMLID_870_">
				<path id="XMLID_872_" class="st5" d="M152.65,188.56v86.14c0,0.71-0.5,1.58-1.12,1.93l-2.38,1.37c-0.62,0.36-1.62,0.36-2.23,0
					l-2.37-1.37c-0.62-0.36-1.12-1.22-1.12-1.93v-86.14c0-0.71,0.5-1,1.12-0.64l2.38,1.37c0.62,0.36,1.62,0.36,2.23,0l2.38-1.37
					C152.15,187.56,152.65,187.85,152.65,188.56z"/>
				<path id="XMLID_871_" class="st6" d="M146.93,278l-2.37-1.37c-0.62-0.36-1.12-1.22-1.12-1.93v-86.14c0-0.71,0.5-1,1.12-0.64
					l2.38,1.37c0.62,0.36,1.12,1.22,1.12,1.93l0,86.14C148.04,278.07,147.54,278.36,146.93,278z"/>
			</g>
			<g id="Desk_4_">
				<g id="XMLID_861_">
					<g id="XMLID_868_">
						<path id="XMLID_869_" class="st5" d="M451.95,239.59v-0.81c0-1.3-0.91-2.87-2.03-3.52L231.73,109.29
							c-1.12-0.65-2.94-0.65-4.07,0l-109.87,63.46c-1.12,0.65-2.03,2.22-2.03,3.52v0.81c0,1.3,0.91,2.87,2.03,3.52l218.19,125.97
							c1.12,0.65,2.94,0.65,4.07,0l109.87-63.46C451.04,242.46,451.95,240.88,451.95,239.59z"/>
					</g>
					<g id="XMLID_866_">
						<path id="XMLID_867_" class="st1" d="M338.01,301.55v5.51c0.74,0,1.47-0.17,2.03-0.49l109.87-63.46
							c1.13-0.66,2.03-2.22,2.03-3.52v-0.81c0-1.14-0.7-2.52-1.66-3.26c0.74,0.63,0.61,1.5-0.38,2.08l-109.87,63.46
							C339.48,301.39,338.75,301.55,338.01,301.55z"/>
					</g>
					<g id="XMLID_864_">
						<path id="XMLID_865_" class="st7" d="M338.01,301.55v5.51c0.74,0,1.47-0.17,2.03-0.49l109.87-63.46
							c1.13-0.66,2.03-2.22,2.03-3.52v-0.81c0-1.14-0.7-2.52-1.66-3.26c0.74,0.63,0.61,1.5-0.38,2.08l-109.87,63.46
							C339.48,301.39,338.75,301.55,338.01,301.55z"/>
					</g>
					<g id="XMLID_862_">
						<path id="XMLID_863_" class="st6" d="M449.91,237.6l-109.87,63.46c-1.12,0.65-2.94,0.65-4.07,0L117.79,175.09
							c-1.12-0.65-1.12-1.7,0-2.35l109.87-63.46c1.12-0.65,2.94-0.65,4.07,0l218.19,125.97C451.04,235.9,451.04,236.96,449.91,237.6
							z"/>
					</g>
				</g>
			</g>
		</g>
		<g id="Keyboard_1_">
			<path id="Shadow_13_" class="st8" d="M280.88,194.13l-20.71,11.99c-0.64,0.37-1.68,0.37-2.32,0l-61.18-35.28
				c-0.64-0.37-0.64-0.97,0-1.34l20.71-11.99c0.64-0.37,1.68-0.37,2.32,0l61.18,35.28C281.52,193.16,281.52,193.76,280.88,194.13z"
			/>
			<g id="Keyboard_4_">
				<g id="XMLID_857_">
					<path id="XMLID_860_" class="st9" d="M197.92,167.38c0-0.24,0.16-0.49,0.48-0.67l19.46-11.23c0.64-0.37,1.68-0.37,2.32,0
						l59.37,34.33c0.32,0.19,0.48,0.43,0.48,0.67c0,0.24,0,1.8,0,2.04c0,0.24-0.16,0.49-0.48,0.67l-19.45,11.23
						c-0.64,0.37-1.68,0.37-2.32,0l-59.37-34.28c-0.32-0.18-0.48-0.43-0.48-0.67C197.92,169.23,197.92,167.63,197.92,167.38z"/>
					<path id="XMLID_859_" class="st3" d="M260.1,202.33l19.45-11.18c0.64-0.37,0.64-0.97,0-1.34l-59.37-34.33
						c-0.64-0.37-1.68-0.37-2.32,0l-19.46,11.23c-0.64,0.37-0.64,0.97,0,1.34l59.37,34.28C258.42,202.7,259.46,202.7,260.1,202.33z"
					/>
					<path id="XMLID_858_" class="st10" d="M259.01,202.61v2.09c0.39-0.01,0.79-0.1,1.09-0.27l19.44-11.23
						c0.32-0.19,0.48-0.43,0.48-0.67v-2.05c0,0.24-0.16,0.48-0.48,0.67l-19.44,11.18C259.8,202.51,259.41,202.6,259.01,202.61z"/>
				</g>
				<path id="XMLID_748_" class="st6" d="M201.53,167.53c0-0.01,0.01-0.02,0.01-0.02l1.93-1.11l2.61,1.51l-1.94,1.15l-2.61-1.51
					L201.53,167.53z M204.54,165.79c0-0.01,0.01-0.02,0.01-0.02l1.93-1.11l2.05,1.18l-1.94,1.15l-2.05-1.18L204.54,165.79z
					 M205.18,169.64c0-0.01,0.01-0.02,0.01-0.02l1.93-1.11l2.05,1.18l-1.94,1.15l-2.05-1.18L205.18,169.64z M207.56,164.05
					c0-0.01,0.01-0.02,0.01-0.03l1.93-1.11l3.31,1.91l-1.94,1.15l-3.31-1.91L207.56,164.05z M207.63,167.58
					c0-0.01,0.01-0.02,0.01-0.02l1.93-1.11l1.63,0.94l-1.94,1.15l-1.63-0.94L207.63,167.58z M208.26,171.42
					c0-0.01,0.01-0.02,0.01-0.02l1.92-1.11l2.05,1.18l-1.94,1.15l-2.05-1.18L208.26,171.42z M210.3,169.12
					c0-0.01,0.01-0.02,0.02-0.03l1.93-1.11l1.63,0.94l-1.94,1.15l-1.63-0.94L210.3,169.12z M210.57,162.31
					c0-0.01,0.01-0.02,0.01-0.03l1.93-1.11l2.61,1.51l-1.94,1.15l-2.61-1.51L210.57,162.31z M211.35,173.21
					c0-0.01,0.01-0.02,0.01-0.02l1.93-1.11l14.83,8.56l-1.94,1.15l-14.82-8.56L211.35,173.21z M211.91,166.56
					c0-0.01,0.01-0.02,0.01-0.03l1.93-1.11l1.63,0.94l-1.94,1.15l-1.63-0.94L211.91,166.56z M212.96,170.66
					c0-0.01,0.01-0.02,0.01-0.03l1.93-1.11l1.63,0.94l-1.94,1.15l-1.63-0.94L212.96,170.66z M213.59,160.57
					c0-0.01,0.01-0.02,0.01-0.03l1.93-1.11l1.63,0.94l-1.94,1.15l-1.63-0.94L213.59,160.57z M214.22,164.42
					c0-0.01,0.01-0.02,0.01-0.02l1.93-1.11l1.63,0.94l-1.94,1.15l-1.63-0.94L214.22,164.42z M214.57,168.1
					c0-0.01,0.01-0.02,0.01-0.03l1.93-1.11l1.63,0.94l-1.94,1.15l-1.63-0.94L214.57,168.1z M215.63,172.2
					c0-0.01,0.01-0.02,0.01-0.03l1.93-1.11l1.63,0.94l-1.94,1.15l-1.63-0.94L215.63,172.2z M216.25,162.11
					c0-0.01,0.01-0.02,0.01-0.03l1.93-1.11l1.63,0.94l-1.94,1.15l-1.63-0.94L216.25,162.11z M216.89,165.96
					c0-0.01,0.01-0.02,0.01-0.02l1.93-1.11l1.63,0.94l-1.94,1.15l-1.63-0.94L216.89,165.96z M217.24,169.64
					c0-0.01,0.01-0.02,0.02-0.03l1.93-1.11l1.63,0.94l-1.94,1.15l-1.63-0.94L217.24,169.64z M217.24,158.46
					c0-0.01,0.01-0.02,0.01-0.03l1.93-1.11l2.05,1.18l-1.94,1.15l-2.05-1.18L217.24,158.46z M218.3,173.73
					c0-0.01,0.01-0.02,0.01-0.03l1.92-1.11l1.63,0.94l-1.94,1.15l-1.63-0.94L218.3,173.73z M218.92,163.65
					c0-0.01,0.01-0.02,0.01-0.03l1.93-1.11l1.63,0.94l-1.94,1.15l-1.63-0.94L218.92,163.65z M219.55,167.5
					c0-0.01,0.01-0.02,0.01-0.03l1.93-1.11l1.63,0.94l-1.94,1.15l-1.63-0.94L219.55,167.5z M219.91,171.18
					c0-0.01,0.01-0.02,0.01-0.02l1.93-1.11l1.63,0.94l-1.94,1.15l-1.63-0.94L219.91,171.18z M220.97,175.27
					c0-0.01,0.01-0.02,0.01-0.03l1.93-1.11l1.63,0.94l-1.94,1.15l-1.63-0.94L220.97,175.27z M221.49,160.91
					c0-0.01,0.01-0.02,0.01-0.02l1.93-1.11l1.63,0.94l-1.94,1.15l-1.63-0.94L221.49,160.91z M221.58,165.19
					c0-0.01,0.01-0.02,0.02-0.03l1.93-1.11l1.63,0.94l-1.94,1.15l-1.63-0.94L221.58,165.19z M222.22,169.04
					c0-0.01,0.01-0.02,0.01-0.03l1.93-1.11l1.63,0.94l-1.94,1.15l-1.63-0.94L222.22,169.04z M222.57,172.72
					c0-0.01,0.01-0.02,0.02-0.03l1.93-1.11l1.63,0.94l-1.94,1.15l-1.63-0.94L222.57,172.72z M223.63,176.82
					c0-0.01,0.01-0.02,0.01-0.03l1.93-1.11l1.63,0.94l-1.94,1.15l-1.63-0.94L223.63,176.82z M224.16,162.45
					c0-0.01,0.01-0.02,0.01-0.03l1.92-1.11l1.63,0.94l-1.94,1.15l-1.63-0.94L224.16,162.45z M224.25,166.73
					c0-0.01,0.01-0.02,0.01-0.02l1.93-1.11l1.63,0.94l-1.94,1.15l-1.63-0.94L224.25,166.73z M224.89,170.58
					c0-0.01,0.01-0.02,0.01-0.03l1.93-1.11l1.63,0.94l-1.94,1.15l-1.63-0.94L224.89,170.58z M225.24,174.26
					c0-0.01,0.01-0.02,0.01-0.02l1.93-1.11l1.63,0.94l-1.94,1.15l-1.63-0.94L225.24,174.26z M226.3,178.35
					c0-0.01,0.01-0.02,0.01-0.02l1.93-1.11l1.63,0.94l-1.94,1.15l-1.63-0.94L226.3,178.35z M226.83,163.99
					c0-0.01,0.01-0.02,0.01-0.03l1.93-1.11l1.63,0.94l-1.94,1.15l-1.63-0.94L226.83,163.99z M226.92,168.27
					c0-0.01,0.01-0.02,0.01-0.03l1.93-1.11l1.63,0.94l-1.94,1.15l-1.63-0.94L226.92,168.27z M227.22,182.36
					c0-0.01,0.01-0.02,0.01-0.03l1.93-1.11l2.05,1.18l-1.94,1.15l-2.05-1.18L227.22,182.36z M227.56,172.12
					c0-0.01,0.01-0.02,0.01-0.03l1.93-1.11l1.63,0.94l-1.94,1.15l-1.63-0.94L227.56,172.12z M227.91,175.8
					c0-0.01,0.01-0.02,0.01-0.02l1.93-1.11l1.63,0.94l-1.94,1.15l-1.63-0.94L227.91,175.8z M228.97,179.89
					c0-0.01,0.01-0.02,0.01-0.03l1.93-1.11l1.63,0.94l-1.94,1.15l-1.63-0.94L228.97,179.89z M229.49,165.53
					c0-0.01,0.01-0.02,0.01-0.02l1.93-1.11l1.63,0.94l-1.94,1.15l-1.63-0.94L229.49,165.53z M229.59,169.81
					c0-0.01,0.01-0.02,0.02-0.03l1.93-1.11l1.63,0.94l-1.94,1.15l-1.63-0.94L229.59,169.81z M230.22,173.66
					c0-0.01,0.01-0.02,0.01-0.03l1.93-1.11l1.63,0.94l-1.94,1.15l-1.63-0.94L230.22,173.66z M230.3,184.15
					c0-0.01,0.01-0.02,0.02-0.03l1.93-1.11l2.05,1.18l-1.94,1.15l-2.05-1.18L230.3,184.15z M230.58,177.34
					c0-0.01,0.01-0.02,0.02-0.03l1.93-1.11l1.63,0.94l-1.94,1.15l-1.63-0.94L230.58,177.34z M231.63,181.43
					c0-0.01,0.01-0.02,0.01-0.03l1.93-1.11l1.63,0.94l-1.94,1.15l-1.63-0.94L231.63,181.43z M232.25,171.35
					c0-0.01,0.01-0.02,0.01-0.02l1.93-1.11l1.63,0.94l-1.94,1.15l-1.63-0.94L232.25,171.35z M232.89,175.2
					c0-0.01,0.01-0.02,0.01-0.02l1.93-1.11l1.63,0.94l-1.94,1.15l-1.63-0.94L232.89,175.2z M233.24,178.88
					c0-0.01,0.01-0.02,0.01-0.02l1.93-1.11l1.63,0.94l-1.94,1.15l-1.63-0.94L233.24,178.88z M233.32,167.74
					c0-0.01,0.01-0.02,0.01-0.02l1.93-1.11l1.63,0.94l-1.94,1.15l-1.63-0.94L233.32,167.74z M233.39,185.93
					c0-0.01,0.01-0.02,0.01-0.03l1.93-1.11l2.05,1.18l-1.94,1.15l-2.05-1.18L233.39,185.93z M234.3,182.97
					c0-0.01,0.01-0.02,0.01-0.02l1.93-1.11l1.63,0.94l-1.94,1.15l-1.63-0.94L234.3,182.97z M234.92,172.89
					c0-0.01,0.01-0.02,0.01-0.03l1.92-1.11l1.63,0.94l-1.94,1.15l-1.63-0.94L234.92,172.89z M235.56,176.74
					c0-0.01,0.01-0.02,0.01-0.02l1.93-1.11l1.63,0.94l-1.94,1.15l-1.63-0.94L235.56,176.74z M235.91,180.42
					c0-0.01,0.01-0.02,0.01-0.02l1.93-1.11l1.63,0.94l-1.94,1.15l-1.63-0.94L235.91,180.42z M235.99,169.28
					c0-0.01,0.01-0.02,0.01-0.02l1.93-1.11l1.63,0.94l-1.94,1.15l-1.63-0.94L235.99,169.28z M236.48,187.71
					c0-0.01,0.01-0.02,0.01-0.03l1.93-1.11l2.61,1.51l-1.94,1.15l-2.61-1.51L236.48,187.71z M236.97,184.51
					c0-0.01,0.01-0.02,0.02-0.03l1.93-1.11l5.14,2.97l-1.94,1.15l-5.14-2.97L236.97,184.51z M237.59,174.43
					c0-0.01,0.01-0.02,0.01-0.03l1.93-1.11l1.63,0.94l-1.94,1.15l-1.63-0.94L237.59,174.43z M238.22,178.28
					c0-0.01,0.01-0.02,0.01-0.03l1.93-1.11l1.63,0.94l-1.94,1.15l-1.63-0.94L238.22,178.28z M238.58,181.96
					c0-0.01,0.01-0.02,0.01-0.02l1.93-1.11l1.63,0.94l-1.94,1.15l-1.63-0.94L238.58,181.96z M238.65,170.82
					c0-0.01,0.01-0.02,0.01-0.03l1.93-1.11l1.63,0.94l-1.94,1.15l-1.63-0.94L238.65,170.82z M240.25,175.97
					c0-0.01,0.01-0.02,0.01-0.03l1.93-1.11l1.63,0.94l-1.94,1.15l-1.63-0.94L240.25,175.97z M240.69,190.14
					c0-0.01,0.01-0.02,0.01-0.02l1.93-1.11l1.63,0.94l-1.94,1.15l-1.63-0.94L240.69,190.14z M240.89,179.82
					c0-0.01,0.01-0.02,0.01-0.03l1.93-1.11l1.63,0.94l-1.94,1.15l-1.63-0.94L240.89,179.82z M241.24,183.5
					c0-0.01,0.01-0.02,0.01-0.02l1.93-1.11l1.49,0.86c0.1,0.06,0.28,0.1,0.47,0.1c0.2,0,0.38-0.04,0.49-0.1l2.53-1.46l1.91,1.1
					l-4.95,2.89l-3.87-2.24L241.24,183.5z M241.32,172.36c0-0.01,0.01-0.02,0.01-0.02l1.93-1.11l1.63,0.94l-1.94,1.15l-1.63-0.94
					L241.32,172.36z M242.92,177.51c0-0.01,0.01-0.02,0.01-0.02l1.93-1.11l1.63,0.94l-1.94,1.15l-1.63-0.94L242.92,177.51z
					 M243.36,191.68c0-0.01,0.01-0.02,0.01-0.03l1.93-1.11l1.63,0.94l-1.94,1.15l-1.63-0.94L243.36,191.68z M243.56,181.36
					c0-0.01,0.01-0.02,0.01-0.03l1.93-1.11l1.63,0.94l-1.94,1.15l-1.63-0.94L243.56,181.36z M245.15,174.57
					c0-0.01,0.01-0.02,0.01-0.03l1.93-1.11l1.63,0.94l-1.94,1.15l-1.63-0.94L245.15,174.57z M245.59,179.05
					c0-0.01,0.01-0.02,0.01-0.03l1.93-1.11l1.63,0.94l-1.94,1.15l-1.63-0.94L245.59,179.05z M246.02,193.22
					c0-0.01,0.01-0.02,0.02-0.03l1.93-1.11l1.63,0.94l-1.94,1.15l-1.63-0.94L246.02,193.22z M246.37,189.94
					c0-0.01,0.01-0.02,0.01-0.03l1.93-1.11l1.63,0.94L248,190.9l-1.63-0.94L246.37,189.94z M247.82,176.11
					c0-0.01,0.01-0.02,0.01-0.03l1.93-1.11l1.63,0.94l-1.94,1.15l-1.63-0.94L247.82,176.11z M248.26,180.59
					c0-0.01,0.01-0.02,0.01-0.03l1.93-1.11l2.89,1.67l-1.94,1.15l-2.89-1.67L248.26,180.59z M249.25,195.09
					c0-0.01,0.01-0.02,0.01-0.02l1.93-1.11l4.3,2.48l-1.94,1.15l-4.29-2.48L249.25,195.09z M249.73,184.92
					c0-0.01,0.01-0.02,0.01-0.03l1.93-1.11l1.63,0.94l-1.94,1.15l-1.63-0.94L249.73,184.92z M250.48,177.65
					c0-0.01,0.01-0.02,0.01-0.03l1.93-1.11l1.63,0.94l-1.94,1.15l-1.63-0.94L250.48,177.65z M252.27,193.35
					c0-0.01,0.01-0.02,0.01-0.03l1.92-1.11l1.63,0.94l-1.94,1.15l-1.63-0.94L252.27,193.35z M252.4,186.46
					c0-0.01,0.01-0.02,0.01-0.03l1.93-1.11l1.63,0.94l-1.94,1.15l-1.63-0.94L252.4,186.46z M252.75,183.18
					c0-0.01,0.01-0.02,0.01-0.03l1.93-1.11l1.63,0.94l-1.94,1.15l-1.63-0.94L252.75,183.18z M253.15,179.19
					c0-0.01,0.01-0.02,0.01-0.03l1.93-1.11l1.63,0.94l-1.94,1.15l-1.63-0.94L253.15,179.19z M254.59,198.17
					c0-0.01,0.01-0.02,0.01-0.03l1.93-1.11l1.63,0.94l-1.94,1.15l-1.63-0.94L254.59,198.17z M254.93,194.89
					c0-0.01,0.01-0.02,0.01-0.03l1.93-1.11l1.63,0.94l-1.94,1.15l-1.63-0.94L254.93,194.89z M255.07,188c0-0.01,0.01-0.02,0.01-0.03
					l1.93-1.11l1.63,0.94l-1.94,1.15l-1.63-0.94L255.07,188z M255.28,191.61c0-0.01,0.01-0.02,0.01-0.03l1.93-1.11l1.63,0.94
					l-1.94,1.15l-1.63-0.94L255.28,191.61z M255.41,184.72c0-0.01,0.01-0.02,0.01-0.03l1.93-1.11l1.63,0.94l-1.94,1.15l-1.63-0.94
					L255.41,184.72z M256.41,181.07c0-0.01,0.01-0.02,0.01-0.03l1.93-1.11l1.63,0.94l-1.94,1.15l-1.63-0.94L256.41,181.07z
					 M257.25,199.71c0-0.01,0.01-0.02,0.01-0.03l4.94-2.85l1.63,0.94l-4.95,2.89l-1.63-0.94L257.25,199.71z M257.6,196.43
					c0-0.01,0.01-0.02,0.01-0.03l1.92-1.11l1.63,0.94l-1.94,1.15l-1.63-0.94L257.6,196.43z M257.95,193.15
					c0-0.01,0.01-0.02,0.01-0.03l1.92-1.11l1.63,0.94l-1.94,1.15l-1.63-0.94L257.95,193.15z M258.08,186.26
					c0-0.01,0.01-0.02,0.01-0.03l1.93-1.11l1.63,0.94l-1.94,1.15l-1.63-0.94L258.08,186.26z M258.3,189.87
					c0-0.01,0.01-0.02,0.01-0.02l1.93-1.11l1.63,0.94l-1.94,1.15l-1.63-0.94L258.3,189.87z M259.07,182.61
					c0-0.01,0.01-0.02,0.01-0.03l1.93-1.11l1.63,0.94l-1.94,1.15l-1.63-0.94L259.07,182.61z M260.62,194.69
					c0-0.01,0.01-0.02,0.01-0.03l1.92-1.11l1.63,0.94l-1.94,1.15l-1.63-0.94L260.62,194.69z M260.96,191.41
					c0-0.01,0.01-0.02,0.01-0.02l1.93-1.11l1.63,0.94l-1.94,1.15l-1.63-0.94L260.96,191.41z M261.31,188.13
					c0-0.01,0.01-0.02,0.01-0.02l1.93-1.11l1.63,0.94l-1.94,1.15l-1.63-0.94L261.31,188.13z M261.74,184.15
					c0-0.01,0.01-0.02,0.01-0.03l1.93-1.11l1.63,0.94l-1.94,1.15l-1.63-0.94L261.74,184.15z M263.28,196.23
					c0-0.01,0.01-0.02,0.01-0.03l4.94-2.85l1.63,0.94l-4.95,2.89l-1.63-0.94L263.28,196.23z M263.63,192.95
					c0-0.01,0.01-0.02,0.01-0.02l1.93-1.11l1.63,0.94l-1.94,1.15l-1.63-0.94L263.63,192.95z M263.98,189.67
					c0-0.01,0.01-0.02,0.01-0.02l1.93-1.11l1.63,0.94l-1.94,1.15l-1.63-0.94L263.98,189.67z M265.74,185.57
					c0-0.01,0.01-0.02,0.01-0.03l0.82-0.48l1.63,0.94l-0.84,0.52l-1.62-0.94L265.74,185.57z M266.64,191.21
					c0-0.01,0.01-0.02,0.01-0.02l1.93-1.11l1.63,0.94l-1.94,1.15l-1.63-0.94L266.64,191.21z M268.41,187.11
					c0-0.01,0.01-0.02,0.01-0.03l0.82-0.48l1.63,0.94l-0.84,0.52l-1.62-0.94L268.41,187.11z M269.31,192.75
					c0-0.01,0.01-0.02,0.01-0.02l1.93-1.11l1.63,0.94l-1.94,1.15l-1.63-0.94L269.31,192.75z M271.08,188.65
					c0-0.01,0.01-0.02,0.01-0.03l0.82-0.48l1.63,0.94l-0.84,0.52l-1.62-0.94L271.08,188.65z M273.74,190.19
					c0-0.01,0.01-0.02,0.02-0.03l0.82-0.48l1.63,0.94l-0.84,0.52l-1.62-0.94L273.74,190.19z"/>
			</g>
		</g>
		<g id="PC_2_">
			<polygon id="Shadow_12_" class="st8" points="363.7,213.03 384.65,200.93 279.88,140.44 258.93,152.54 			"/>
			<g id="Monitor_2_">
				<g id="XMLID_741_">
					<g id="XMLID_746_">
						<path id="XMLID_747_" class="st0" d="M304.37,193.33l-14.96-8.65c-1.54-0.89-2.31-2.06-2.31-3.22c0-1.17-0.01-2.08-0.01-2.08
							l14.08-7.99c0.82-0.47,1.49-1.63,1.49-2.58v-18.44l26.13,15.1l0,18.44c0,0.95-0.67,2.1-1.49,2.58l-11.76,6.85
							C312.45,195.11,307.45,195.11,304.37,193.33z"/>
					</g>
					<path id="XMLID_745_" class="st10" d="M322.51,187.17v2.07l4.79-2.76c0.82-0.47,1.49-1.62,1.49-2.58v-18.44l-4.98-2.87
						c-0.1,1.26-0.21,2.57-0.32,3.84l3.49,2.02v14.41c0,0.95-0.66,2.11-1.49,2.58L322.51,187.17z"/>
					<path id="XMLID_744_" class="st11" d="M326.98,182.87c0,0.95-0.67,2.1-1.49,2.58l-9.95,5.8c-3.08,1.78-8.08,1.78-11.17,0
						l-14.97-8.65c-3.08-1.78-3.08-4.67,0-6.45l9.96-5.81c0.82-0.47,1.49-1.63,1.49-2.58l0-14.41l26.13,15.1V182.87z"/>
					<path id="XMLID_743_" class="st9" d="M296.33,172.1L296.33,172.1l3.03-1.75c0.82-0.47,1.49-1.63,1.49-2.58v-14.41l26.13,15.1
						v14.41c0,0.95-0.67,2.1-1.49,2.58l-2.98,1.72L296.33,172.1z"/>
					<path id="XMLID_742_" class="st9" d="M287.09,179.38c0,0,0,0.91,0,2.08c0,1.17,0.77,2.33,2.31,3.22l14.96,8.64
						c1.48,0.86,3.4,1.29,5.33,1.32v-2.07c-1.93-0.03-3.85-0.47-5.33-1.32l-14.96-8.65C287.87,181.72,287.09,180.55,287.09,179.38z"
					/>
				</g>
				<path id="XMLID_740_" class="st6" d="M368.94,202.77c-0.96,0.56-2.58,0.53-3.61-0.07c-12.85-7.42-88.2-50.92-101.05-58.34
					c-1.03-0.59-1.86-2.04-1.86-3.22V52.69c0-1.19,0.78-2.6,1.75-3.16c0.96-0.56,2.58-0.53,3.61,0.07l101.05,58.34
					c1.03,0.59,1.86,2.04,1.86,3.22l0,88.44C370.68,200.8,369.9,202.21,368.94,202.77z"/>
				<path id="XMLID_739_" class="st1" d="M365.33,202.7l-101.05-58.34c-1.03-0.59-1.86-2.04-1.86-3.22V52.69
					c0-1.19,0.83-1.67,1.86-1.07l101.04,58.34c1.03,0.59,1.86,2.04,1.86,3.22l0,88.44C367.19,202.81,366.36,203.29,365.33,202.7z"/>
				<path id="XMLID_738_" class="st5" d="M365.33,202.7l-101.05-58.34c-1.03-0.59-1.86-2.04-1.86-3.22V52.69
					c0-1.19,0.83-1.67,1.86-1.07l101.04,58.34c1.03,0.59,1.86,2.04,1.86,3.22l0,88.44C367.19,202.81,366.36,203.29,365.33,202.7z"/>
				<path id="XMLID_737_" class="st10" d="M365.6,203.07c1.03,0.46,2.46,0.44,3.34-0.07c0.96-0.56,1.75-1.97,1.75-3.16v-9.95
					l-3.49,2.02v9.95C367.19,202.94,366.5,203.43,365.6,203.07z"/>
				<path id="XMLID_736_" class="st3" d="M367.19,191.9l0,9.95c0,1.19-0.83,1.67-1.86,1.07l-101.05-58.34
					c-1.03-0.59-1.86-2.04-1.86-3.22v-9.95L367.19,191.9z"/>
				<path id="XMLID_730_" class="st1" d="M363.7,184.34l0-70c0-0.71-0.5-1.58-1.12-1.93l-95.55-55.17
					c-0.62-0.36-1.12-0.07-1.12,0.64l0,70c0,0.71,0.5,1.58,1.12,1.93l95.55,55.16C363.2,185.34,363.7,185.05,363.7,184.34z"/>
				<path id="XMLID_729_" class="st12" d="M363.7,184.34l0-70c0-0.71-0.5-1.58-1.12-1.93l-95.55-55.17
					c-0.62-0.36-1.12-0.07-1.12,0.64l0,70c0,0.71,0.5,1.58,1.12,1.93l95.55,55.16C363.2,185.34,363.7,185.05,363.7,184.34z"/>
				<path id="XMLID_728_" class="st6" d="M358.05,113.76l-85.07-49.12c-0.62-0.36-1.12-0.07-1.12,0.64v61.94
					c0,0.71,0.5,1.58,1.12,1.93l85.07,49.12c0.62,0.36,1.12,0.07,1.12-0.65v-61.94C359.16,114.98,358.66,114.11,358.05,113.76z"/>
				<g id="XMLID_692_">
					<path id="XMLID_727_" class="st7" d="M281.78,79.83v38.94c0,0.24-0.17,0.33-0.37,0.21l-6.24-3.6
						c-0.21-0.12-0.37-0.41-0.37-0.64V75.8c0-0.24,0.17-0.33,0.37-0.21l6.24,3.6C281.61,79.31,281.78,79.6,281.78,79.83z"/>
					<g id="XMLID_698_">
						<path id="XMLID_726_" class="st5" d="M280.91,80.75l-2.06-1.19c-0.15-0.09-0.28-0.02-0.28,0.16l0,2.38
							c0,0.18,0.12,0.39,0.28,0.48l2.06,1.19c0.15,0.09,0.28,0.02,0.28-0.16l0-2.38C281.19,81.06,281.07,80.84,280.91,80.75z"/>
						<path id="XMLID_725_" class="st5" d="M277.73,78.91l-2.06-1.19c-0.15-0.09-0.28-0.02-0.28,0.16l0,2.38
							c0,0.18,0.12,0.39,0.28,0.48l2.06,1.19c0.15,0.09,0.28,0.02,0.28-0.16l0-2.38C278.01,79.22,277.88,79,277.73,78.91z"/>
						<path id="XMLID_724_" class="st5" d="M280.91,84.36l-2.06-1.19c-0.15-0.09-0.28-0.02-0.28,0.16l0,2.38
							c0,0.18,0.12,0.39,0.28,0.48l2.06,1.19c0.15,0.09,0.28,0.02,0.28-0.16l0-2.38C281.19,84.67,281.07,84.45,280.91,84.36z"/>
						<path id="XMLID_723_" class="st5" d="M277.73,82.52l-2.06-1.19c-0.15-0.09-0.28-0.02-0.28,0.16l0,2.38
							c0,0.18,0.12,0.39,0.28,0.48l2.06,1.19c0.15,0.09,0.28,0.02,0.28-0.16l0-2.38C278.01,82.83,277.88,82.61,277.73,82.52z"/>
						<path id="XMLID_722_" class="st5" d="M280.91,87.97l-2.06-1.19c-0.15-0.09-0.28-0.02-0.28,0.16l0,2.38
							c0,0.18,0.12,0.39,0.28,0.48l2.06,1.19c0.15,0.09,0.28,0.02,0.28-0.16l0-2.38C281.19,88.28,281.07,88.06,280.91,87.97z"/>
						<path id="XMLID_721_" class="st5" d="M277.73,86.13l-2.06-1.19c-0.15-0.09-0.28-0.02-0.28,0.16l0,2.38
							c0,0.18,0.12,0.39,0.28,0.48l2.06,1.19c0.15,0.09,0.28,0.02,0.28-0.16l0-2.38C278.01,86.44,277.88,86.22,277.73,86.13z"/>
						<path id="XMLID_719_" class="st5" d="M280.91,91.58l-2.06-1.19c-0.15-0.09-0.28-0.02-0.28,0.16l0,2.38
							c0,0.18,0.12,0.39,0.28,0.48l2.06,1.19c0.15,0.09,0.28,0.02,0.28-0.16l0-2.38C281.19,91.89,281.07,91.67,280.91,91.58z"/>
						<path id="XMLID_718_" class="st5" d="M277.73,89.74l-2.06-1.19c-0.15-0.09-0.28-0.02-0.28,0.16l0,2.38
							c0,0.18,0.12,0.39,0.28,0.48l2.06,1.19c0.15,0.09,0.28,0.02,0.28-0.16l0-2.38C278.01,90.05,277.88,89.83,277.73,89.74z"/>
						<path id="XMLID_717_" class="st5" d="M280.91,95.19L278.85,94c-0.15-0.09-0.28-0.02-0.28,0.16l0,2.38
							c0,0.18,0.12,0.39,0.28,0.48l2.06,1.19c0.15,0.09,0.28,0.02,0.28-0.16l0-2.38C281.19,95.49,281.07,95.28,280.91,95.19z"/>
						<path id="XMLID_716_" class="st5" d="M277.73,93.35l-2.06-1.19c-0.15-0.09-0.28-0.02-0.28,0.16l0,2.38
							c0,0.18,0.12,0.39,0.28,0.48l2.06,1.19c0.15,0.09,0.28,0.02,0.28-0.16l0-2.38C278.01,93.66,277.88,93.44,277.73,93.35z"/>
						<path id="XMLID_714_" class="st5" d="M280.91,98.8l-2.06-1.19c-0.15-0.09-0.28-0.02-0.28,0.16l0,2.38
							c0,0.18,0.12,0.39,0.28,0.48l2.06,1.19c0.15,0.09,0.28,0.02,0.28-0.16l0-2.38C281.19,99.1,281.07,98.89,280.91,98.8z"/>
						<path id="XMLID_713_" class="st5" d="M277.73,96.96l-2.06-1.19c-0.15-0.09-0.28-0.02-0.28,0.16l0,2.38
							c0,0.18,0.12,0.39,0.28,0.48l2.06,1.19c0.15,0.09,0.28,0.02,0.28-0.16l0-2.38C278.01,97.27,277.88,97.05,277.73,96.96z"/>
						<path id="XMLID_712_" class="st5" d="M280.91,102.41l-2.06-1.19c-0.15-0.09-0.28-0.02-0.28,0.16l0,2.38
							c0,0.18,0.12,0.39,0.28,0.48l2.06,1.19c0.15,0.09,0.28,0.02,0.28-0.16l0-2.38C281.19,102.71,281.07,102.5,280.91,102.41z"/>
						<path id="XMLID_709_" class="st5" d="M277.73,100.57l-2.06-1.19c-0.15-0.09-0.28-0.02-0.28,0.16l0,2.38
							c0,0.18,0.12,0.39,0.28,0.48l2.06,1.19c0.15,0.09,0.28,0.02,0.28-0.16l0-2.38C278.01,100.87,277.88,100.66,277.73,100.57z"/>
						<path id="XMLID_708_" class="st5" d="M280.91,106.02l-2.06-1.19c-0.15-0.09-0.28-0.02-0.28,0.16l0,2.38
							c0,0.18,0.12,0.39,0.28,0.48l2.06,1.19c0.15,0.09,0.28,0.02,0.28-0.16l0-2.38C281.19,106.32,281.07,106.11,280.91,106.02z"/>
						<path id="XMLID_699_" class="st5" d="M277.73,104.18l-2.06-1.19c-0.15-0.09-0.28-0.02-0.28,0.16l0,2.38
							c0,0.18,0.12,0.39,0.28,0.48l2.06,1.19c0.15,0.09,0.28,0.02,0.28-0.16l0-2.38C278.01,104.48,277.88,104.27,277.73,104.18z"/>
					</g>
					<path id="XMLID_697_" class="st10" d="M280.78,110.54l-3.07-1.77c-0.23-0.13-0.42-0.03-0.42,0.24l0,3.55
						c0,0.27,0.19,0.59,0.42,0.72l3.07,1.77c0.23,0.13,0.42,0.03,0.42-0.24l0-3.55C281.19,111,281.01,110.67,280.78,110.54z"/>
					<path id="XMLID_693_" class="st6" d="M275.98,111.14l2.52,1.46c0.03,0.02,0.09,0.12,0.09,0.17l0,2.91l-2.52-1.46
						c-0.03-0.02-0.09-0.12-0.09-0.17L275.98,111.14 M275.56,110.21c-0.14,0-0.23,0.11-0.23,0.3l0,3.55c0,0.27,0.19,0.59,0.42,0.72
						l3.07,1.77c0.07,0.04,0.13,0.06,0.19,0.06c0.14,0,0.23-0.11,0.23-0.3l0-3.55c0-0.27-0.19-0.59-0.42-0.72l-3.07-1.77
						C275.68,110.23,275.62,110.21,275.56,110.21L275.56,110.21z"/>
				</g>
				<path id="XMLID_691_" class="st5" d="M346.42,120.2l-55.36-31.96c-1.17-0.68-2.12-0.13-2.12,1.22v41.01
					c0,1.35,0.95,2.99,2.12,3.67l55.35,31.94c1.17,0.67,2.12,0.13,2.12-1.22l0-40.98C348.54,122.52,347.59,120.87,346.42,120.2z"/>
				<g>
					<g>
						<g>
							<path class="st1" d="M294.13,96.54c-0.09,0-0.16-0.07-0.16-0.16v-0.64c0-0.06,0.03-0.11,0.08-0.14
								c0.05-0.03,0.11-0.03,0.16,0l0.56,0.32c0.08,0.04,0.1,0.14,0.06,0.22c-0.05,0.08-0.14,0.1-0.22,0.06l-0.31-0.18v0.36
								C294.29,96.46,294.22,96.54,294.13,96.54z"/>
						</g>
						<g>
							<path class="st1" d="M313.1,106.85c-0.03,0-0.06-0.01-0.08-0.02l-1.15-0.67c-0.08-0.04-0.1-0.14-0.06-0.22
								c0.04-0.08,0.14-0.1,0.22-0.06l1.15,0.66c0.08,0.04,0.1,0.14,0.06,0.22C313.21,106.82,313.15,106.85,313.1,106.85z
								 M310.8,105.52c-0.03,0-0.06-0.01-0.08-0.02l-1.15-0.67c-0.08-0.04-0.1-0.14-0.06-0.22c0.04-0.08,0.14-0.1,0.22-0.06
								l1.15,0.66c0.08,0.04,0.1,0.14,0.06,0.22C310.91,105.49,310.85,105.52,310.8,105.52z M308.49,104.19
								c-0.03,0-0.05-0.01-0.08-0.02l-1.15-0.66c-0.08-0.04-0.1-0.14-0.06-0.22c0.04-0.08,0.14-0.1,0.22-0.06l1.15,0.66
								c0.08,0.04,0.1,0.14,0.06,0.22C308.6,104.16,308.55,104.19,308.49,104.19z M306.19,102.86c-0.03,0-0.05-0.01-0.08-0.02
								l-1.15-0.66c-0.08-0.04-0.1-0.14-0.06-0.22c0.04-0.08,0.14-0.1,0.22-0.06l1.15,0.66c0.08,0.04,0.1,0.14,0.06,0.22
								C306.3,102.83,306.25,102.86,306.19,102.86z M303.89,101.53c-0.03,0-0.06-0.01-0.08-0.02l-1.15-0.66
								c-0.08-0.04-0.1-0.14-0.06-0.22c0.05-0.08,0.14-0.1,0.22-0.06l1.15,0.67c0.08,0.04,0.1,0.14,0.06,0.22
								C304,101.5,303.95,101.53,303.89,101.53z M301.59,100.2c-0.03,0-0.06-0.01-0.08-0.02l-1.15-0.66
								c-0.08-0.04-0.1-0.14-0.06-0.22c0.05-0.08,0.14-0.1,0.22-0.06l1.15,0.67c0.08,0.04,0.1,0.14,0.06,0.22
								C301.7,100.17,301.64,100.2,301.59,100.2z M299.29,98.87c-0.03,0-0.06-0.01-0.08-0.02l-1.15-0.66
								c-0.08-0.04-0.1-0.14-0.06-0.22c0.04-0.08,0.14-0.1,0.22-0.06l1.15,0.66c0.08,0.04,0.1,0.14,0.06,0.22
								C299.4,98.84,299.34,98.87,299.29,98.87z M296.99,97.54c-0.03,0-0.05-0.01-0.08-0.02l-1.15-0.66
								c-0.08-0.04-0.1-0.14-0.06-0.22c0.04-0.08,0.14-0.1,0.22-0.06l1.15,0.66c0.08,0.04,0.1,0.14,0.06,0.22
								C297.09,97.51,297.04,97.54,296.99,97.54z"/>
						</g>
						<g>
							<path class="st1" d="M314.8,108.47c-0.09,0-0.16-0.07-0.16-0.16v-0.55l-0.48-0.27c-0.08-0.04-0.1-0.14-0.06-0.22
								c0.05-0.08,0.14-0.1,0.22-0.06l0.56,0.32c0.05,0.03,0.08,0.08,0.08,0.14v0.64C314.97,108.4,314.89,108.47,314.8,108.47z"/>
						</g>
						<g>
							<path class="st1" d="M314.8,139.44c-0.09,0-0.16-0.07-0.16-0.16v-1.29c0-0.09,0.07-0.16,0.16-0.16s0.16,0.07,0.16,0.16v1.29
								C314.97,139.37,314.89,139.44,314.8,139.44z M314.8,136.86c-0.09,0-0.16-0.07-0.16-0.16v-1.29c0-0.09,0.07-0.16,0.16-0.16
								s0.16,0.07,0.16,0.16v1.29C314.97,136.79,314.89,136.86,314.8,136.86z M314.8,134.28c-0.09,0-0.16-0.07-0.16-0.16v-1.29
								c0-0.09,0.07-0.16,0.16-0.16s0.16,0.07,0.16,0.16v1.29C314.97,134.21,314.89,134.28,314.8,134.28z M314.8,131.7
								c-0.09,0-0.16-0.07-0.16-0.16v-1.29c0-0.09,0.07-0.16,0.16-0.16s0.16,0.07,0.16,0.16v1.29
								C314.97,131.63,314.89,131.7,314.8,131.7z M314.8,129.12c-0.09,0-0.16-0.07-0.16-0.16v-1.29c0-0.09,0.07-0.16,0.16-0.16
								s0.16,0.07,0.16,0.16v1.29C314.97,129.05,314.89,129.12,314.8,129.12z M314.8,126.54c-0.09,0-0.16-0.07-0.16-0.16v-1.29
								c0-0.09,0.07-0.16,0.16-0.16s0.16,0.07,0.16,0.16v1.29C314.97,126.47,314.89,126.54,314.8,126.54z M314.8,123.96
								c-0.09,0-0.16-0.07-0.16-0.16v-1.29c0-0.09,0.07-0.16,0.16-0.16s0.16,0.07,0.16,0.16v1.29
								C314.97,123.89,314.89,123.96,314.8,123.96z M314.8,121.38c-0.09,0-0.16-0.07-0.16-0.16v-1.29c0-0.09,0.07-0.16,0.16-0.16
								s0.16,0.07,0.16,0.16v1.29C314.97,121.31,314.89,121.38,314.8,121.38z M314.8,118.8c-0.09,0-0.16-0.07-0.16-0.16v-1.29
								c0-0.09,0.07-0.16,0.16-0.16s0.16,0.07,0.16,0.16v1.29C314.97,118.73,314.89,118.8,314.8,118.8z M314.8,116.22
								c-0.09,0-0.16-0.07-0.16-0.16v-1.29c0-0.09,0.07-0.16,0.16-0.16s0.16,0.07,0.16,0.16v1.29
								C314.97,116.14,314.89,116.22,314.8,116.22z M314.8,113.63c-0.09,0-0.16-0.07-0.16-0.16v-1.29c0-0.09,0.07-0.16,0.16-0.16
								s0.16,0.07,0.16,0.16v1.29C314.97,113.56,314.89,113.63,314.8,113.63z M314.8,111.05c-0.09,0-0.16-0.07-0.16-0.16v-1.29
								c0-0.09,0.07-0.16,0.16-0.16s0.16,0.07,0.16,0.16v1.29C314.97,110.98,314.89,111.05,314.8,111.05z"/>
						</g>
						<g>
							<path class="st1" d="M314.8,141.38c-0.03,0-0.06-0.01-0.08-0.02l-0.56-0.32c-0.08-0.04-0.1-0.14-0.06-0.22
								c0.05-0.08,0.14-0.1,0.22-0.06l0.32,0.18v-0.36c0-0.09,0.07-0.16,0.16-0.16s0.16,0.07,0.16,0.16v0.64
								c0,0.06-0.03,0.11-0.08,0.14C314.86,141.37,314.83,141.38,314.8,141.38z"/>
						</g>
						<g>
							<path class="st1" d="M313.1,140.39c-0.03,0-0.05-0.01-0.08-0.02l-1.15-0.66c-0.08-0.04-0.1-0.14-0.06-0.22
								c0.05-0.08,0.14-0.1,0.22-0.06l1.15,0.66c0.08,0.04,0.1,0.14,0.06,0.22C313.21,140.36,313.15,140.39,313.1,140.39z
								 M310.8,139.06c-0.03,0-0.06-0.01-0.08-0.02l-1.15-0.66c-0.08-0.04-0.1-0.14-0.06-0.22c0.04-0.08,0.14-0.1,0.22-0.06
								l1.15,0.66c0.08,0.04,0.1,0.14,0.06,0.22C310.9,139.03,310.85,139.06,310.8,139.06z M308.49,137.73
								c-0.03,0-0.05-0.01-0.08-0.02l-1.15-0.66c-0.08-0.04-0.1-0.14-0.06-0.22c0.04-0.08,0.14-0.1,0.22-0.06l1.15,0.66
								c0.08,0.04,0.1,0.14,0.06,0.22C308.6,137.7,308.55,137.73,308.49,137.73z M306.19,136.4c-0.03,0-0.06-0.01-0.08-0.02
								l-1.15-0.66c-0.08-0.04-0.1-0.14-0.06-0.22c0.04-0.08,0.14-0.1,0.22-0.06l1.15,0.66c0.08,0.04,0.1,0.14,0.06,0.22
								C306.3,136.38,306.25,136.4,306.19,136.4z M303.89,135.07c-0.03,0-0.05-0.01-0.08-0.02l-1.15-0.66
								c-0.08-0.04-0.1-0.14-0.06-0.22c0.04-0.08,0.14-0.1,0.22-0.06l1.15,0.66c0.08,0.04,0.1,0.14,0.06,0.22
								C304,135.05,303.95,135.07,303.89,135.07z M301.59,133.75c-0.03,0-0.06-0.01-0.08-0.02l-1.15-0.67
								c-0.08-0.04-0.1-0.14-0.06-0.22c0.05-0.08,0.14-0.1,0.22-0.06l1.15,0.66c0.08,0.04,0.1,0.14,0.06,0.22
								C301.7,133.72,301.64,133.75,301.59,133.75z M299.29,132.42c-0.03,0-0.06-0.01-0.08-0.02l-1.15-0.66
								c-0.08-0.04-0.1-0.14-0.06-0.22c0.05-0.08,0.14-0.1,0.22-0.06l1.15,0.66c0.08,0.04,0.1,0.14,0.06,0.22
								C299.4,132.39,299.34,132.42,299.29,132.42z M296.98,131.09c-0.03,0-0.06-0.01-0.08-0.02l-1.15-0.66
								c-0.08-0.04-0.1-0.14-0.06-0.22c0.04-0.08,0.14-0.1,0.22-0.06l1.15,0.67c0.08,0.04,0.1,0.14,0.06,0.22
								C297.09,131.06,297.04,131.09,296.98,131.09z"/>
						</g>
						<g>
							<path class="st1" d="M294.68,129.76c-0.03,0-0.05-0.01-0.08-0.02l-0.56-0.32c-0.05-0.03-0.08-0.08-0.08-0.14v-0.64
								c0-0.09,0.07-0.16,0.16-0.16c0.09,0,0.16,0.07,0.16,0.16v0.55l0.48,0.27c0.08,0.04,0.1,0.14,0.06,0.22
								C294.79,129.73,294.74,129.76,294.68,129.76z"/>
						</g>
						<g>
							<path class="st1" d="M294.13,127.51c-0.09,0-0.16-0.07-0.16-0.16v-1.29c0-0.09,0.07-0.16,0.16-0.16
								c0.09,0,0.16,0.07,0.16,0.16v1.29C294.29,127.43,294.22,127.51,294.13,127.51z M294.13,124.92c-0.09,0-0.16-0.07-0.16-0.16
								v-1.29c0-0.09,0.07-0.16,0.16-0.16c0.09,0,0.16,0.07,0.16,0.16v1.29C294.29,124.85,294.22,124.92,294.13,124.92z
								 M294.13,122.34c-0.09,0-0.16-0.07-0.16-0.16v-1.29c0-0.09,0.07-0.16,0.16-0.16c0.09,0,0.16,0.07,0.16,0.16v1.29
								C294.29,122.27,294.22,122.34,294.13,122.34z M294.13,119.76c-0.09,0-0.16-0.07-0.16-0.16v-1.29c0-0.09,0.07-0.16,0.16-0.16
								c0.09,0,0.16,0.07,0.16,0.16v1.29C294.29,119.69,294.22,119.76,294.13,119.76z M294.13,117.18c-0.09,0-0.16-0.07-0.16-0.16
								v-1.29c0-0.09,0.07-0.16,0.16-0.16c0.09,0,0.16,0.07,0.16,0.16v1.29C294.29,117.11,294.22,117.18,294.13,117.18z
								 M294.13,114.6c-0.09,0-0.16-0.07-0.16-0.16v-1.29c0-0.09,0.07-0.16,0.16-0.16c0.09,0,0.16,0.07,0.16,0.16v1.29
								C294.29,114.53,294.22,114.6,294.13,114.6z M294.13,112.02c-0.09,0-0.16-0.07-0.16-0.16v-1.29c0-0.09,0.07-0.16,0.16-0.16
								c0.09,0,0.16,0.07,0.16,0.16v1.29C294.29,111.95,294.22,112.02,294.13,112.02z M294.13,109.44c-0.09,0-0.16-0.07-0.16-0.16
								v-1.29c0-0.09,0.07-0.16,0.16-0.16c0.09,0,0.16,0.07,0.16,0.16v1.29C294.29,109.37,294.22,109.44,294.13,109.44z
								 M294.13,106.86c-0.09,0-0.16-0.07-0.16-0.16v-1.29c0-0.09,0.07-0.16,0.16-0.16c0.09,0,0.16,0.07,0.16,0.16v1.29
								C294.29,106.79,294.22,106.86,294.13,106.86z M294.13,104.28c-0.09,0-0.16-0.07-0.16-0.16v-1.29c0-0.09,0.07-0.16,0.16-0.16
								c0.09,0,0.16,0.07,0.16,0.16v1.29C294.29,104.21,294.22,104.28,294.13,104.28z M294.13,101.7c-0.09,0-0.16-0.07-0.16-0.16
								v-1.29c0-0.09,0.07-0.16,0.16-0.16c0.09,0,0.16,0.07,0.16,0.16v1.29C294.29,101.63,294.22,101.7,294.13,101.7z M294.13,99.12
								c-0.09,0-0.16-0.07-0.16-0.16v-1.29c0-0.09,0.07-0.16,0.16-0.16c0.09,0,0.16,0.07,0.16,0.16v1.29
								C294.29,99.04,294.22,99.12,294.13,99.12z"/>
						</g>
					</g>
					<g>
						<g>
							<path class="st1" d="M294.39,96.48c-0.06,0-0.12-0.03-0.15-0.09l-0.27-0.58c-0.04-0.08,0-0.18,0.08-0.21
								c0.08-0.04,0.18,0,0.21,0.08l0.27,0.58c0.04,0.08,0,0.18-0.08,0.21C294.44,96.47,294.42,96.48,294.39,96.48z"/>
						</g>
						<g>
							<path class="st1" d="M313.99,139.59c-0.06,0-0.12-0.03-0.15-0.09l-0.54-1.2c-0.04-0.08,0-0.18,0.08-0.21
								c0.08-0.04,0.18,0,0.21,0.08l0.54,1.2c0.04,0.08,0,0.18-0.08,0.21C314.04,139.59,314.02,139.59,313.99,139.59z M312.91,137.2
								c-0.06,0-0.12-0.03-0.15-0.09l-0.54-1.2c-0.04-0.08,0-0.18,0.08-0.21c0.08-0.04,0.18,0,0.21,0.08l0.54,1.2
								c0.04,0.08,0,0.18-0.08,0.21C312.95,137.19,312.93,137.2,312.91,137.2z M311.82,134.8c-0.06,0-0.12-0.03-0.15-0.09l-0.55-1.2
								c-0.04-0.08,0-0.18,0.08-0.21c0.08-0.04,0.18,0,0.21,0.08l0.54,1.2c0.04,0.08,0,0.18-0.08,0.21
								C311.86,134.8,311.84,134.8,311.82,134.8z M310.73,132.41c-0.06,0-0.12-0.03-0.15-0.09l-0.55-1.2
								c-0.04-0.08,0-0.18,0.08-0.21c0.08-0.04,0.18,0,0.21,0.08l0.54,1.2c0.04,0.08,0,0.18-0.08,0.21
								C310.77,132.4,310.75,132.41,310.73,132.41z M309.64,130.01c-0.06,0-0.12-0.03-0.15-0.09l-0.54-1.2
								c-0.04-0.08,0-0.18,0.08-0.21c0.08-0.04,0.18,0,0.21,0.08l0.54,1.2c0.04,0.08,0,0.18-0.08,0.21
								C309.68,130.01,309.66,130.01,309.64,130.01z M308.55,127.62c-0.06,0-0.12-0.03-0.15-0.09l-0.54-1.2
								c-0.04-0.08,0-0.18,0.08-0.21c0.08-0.04,0.18,0,0.21,0.08l0.54,1.2c0.04,0.08,0,0.18-0.08,0.21
								C308.6,127.61,308.57,127.62,308.55,127.62z M307.46,125.22c-0.06,0-0.12-0.03-0.15-0.09l-0.54-1.2
								c-0.04-0.08,0-0.18,0.08-0.21c0.08-0.04,0.18,0,0.21,0.08l0.54,1.2c0.04,0.08,0,0.18-0.08,0.21
								C307.51,125.22,307.48,125.22,307.46,125.22z M306.37,122.83c-0.06,0-0.12-0.03-0.15-0.09l-0.54-1.2
								c-0.04-0.08,0-0.18,0.08-0.21c0.08-0.04,0.18,0,0.21,0.08l0.55,1.2c0.04,0.08,0,0.18-0.08,0.21
								C306.42,122.82,306.39,122.83,306.37,122.83z M305.28,120.43c-0.06,0-0.12-0.03-0.15-0.09l-0.54-1.2
								c-0.04-0.08,0-0.18,0.08-0.21c0.08-0.04,0.18,0,0.21,0.08l0.54,1.2c0.04,0.08,0,0.18-0.08,0.21
								C305.33,120.43,305.31,120.43,305.28,120.43z M304.19,118.04c-0.06,0-0.12-0.03-0.15-0.09l-0.54-1.2
								c-0.04-0.08,0-0.18,0.08-0.21c0.08-0.04,0.18,0,0.21,0.08l0.54,1.2c0.04,0.08,0,0.18-0.08,0.21
								C304.24,118.03,304.22,118.04,304.19,118.04z M303.11,115.64c-0.06,0-0.12-0.03-0.15-0.09l-0.54-1.2
								c-0.04-0.08,0-0.18,0.08-0.21c0.08-0.04,0.18,0,0.21,0.08l0.54,1.2c0.04,0.08,0,0.18-0.08,0.21
								C303.15,115.64,303.13,115.64,303.11,115.64z M302.02,113.25c-0.06,0-0.12-0.03-0.15-0.09l-0.54-1.2
								c-0.04-0.08,0-0.18,0.08-0.21c0.08-0.04,0.18,0,0.21,0.08l0.54,1.2c0.04,0.08,0,0.18-0.08,0.21
								C302.06,113.24,302.04,113.25,302.02,113.25z M300.93,110.85c-0.06,0-0.12-0.03-0.15-0.09l-0.54-1.2
								c-0.04-0.08,0-0.18,0.08-0.21c0.08-0.04,0.18,0,0.21,0.08l0.54,1.2c0.04,0.08,0,0.18-0.08,0.21
								C300.97,110.85,300.95,110.85,300.93,110.85z M299.84,108.45c-0.06,0-0.12-0.03-0.15-0.09l-0.55-1.2
								c-0.04-0.08,0-0.18,0.08-0.21c0.08-0.04,0.18,0,0.21,0.08l0.54,1.2c0.04,0.08,0,0.18-0.08,0.21
								C299.88,108.45,299.86,108.45,299.84,108.45z M298.75,106.06c-0.06,0-0.12-0.03-0.15-0.09l-0.54-1.2
								c-0.04-0.08,0-0.18,0.08-0.21c0.08-0.04,0.18,0,0.21,0.08l0.54,1.2c0.04,0.08,0,0.18-0.08,0.21
								C298.79,106.06,298.77,106.06,298.75,106.06z M297.66,103.66c-0.06,0-0.12-0.03-0.15-0.09l-0.54-1.2
								c-0.04-0.08,0-0.18,0.08-0.21c0.08-0.04,0.18,0,0.21,0.08l0.54,1.2c0.04,0.08,0,0.18-0.08,0.21
								C297.71,103.66,297.68,103.66,297.66,103.66z M296.57,101.27c-0.06,0-0.12-0.03-0.15-0.09l-0.54-1.2
								c-0.04-0.08,0-0.18,0.08-0.21c0.08-0.04,0.18,0,0.21,0.08l0.54,1.2c0.04,0.08,0,0.18-0.08,0.21
								C296.62,101.26,296.59,101.27,296.57,101.27z M295.48,98.87c-0.06,0-0.12-0.03-0.15-0.09l-0.54-1.2
								c-0.04-0.08,0-0.18,0.08-0.21c0.08-0.04,0.18,0,0.21,0.08l0.55,1.2c0.04,0.08,0,0.18-0.08,0.21
								C295.53,98.87,295.51,98.87,295.48,98.87z"/>
						</g>
						<g>
							<path class="st1" d="M314.8,141.38c-0.06,0-0.12-0.03-0.15-0.09l-0.27-0.58c-0.04-0.08,0-0.18,0.08-0.21
								c0.08-0.04,0.18,0,0.21,0.08l0.27,0.58c0.04,0.08,0,0.18-0.08,0.21C314.85,141.37,314.83,141.38,314.8,141.38z"/>
						</g>
					</g>
					<g>
						<g>
							<path class="st1" d="M314.36,108.3c-0.04,0-0.08-0.01-0.11-0.04c-0.06-0.06-0.07-0.16-0.01-0.23l0.44-0.46
								c0.06-0.07,0.16-0.07,0.23,0c0.06,0.06,0.07,0.16,0.01,0.23l-0.44,0.46C314.45,108.28,314.4,108.3,314.36,108.3z"/>
						</g>
						<g>
							<path class="st1" d="M295.43,128.07c-0.04,0-0.08-0.01-0.11-0.04c-0.06-0.06-0.07-0.16-0.01-0.23l0.86-0.9
								c0.06-0.07,0.16-0.07,0.23-0.01c0.06,0.06,0.07,0.16,0.01,0.23l-0.86,0.9C295.52,128.06,295.47,128.07,295.43,128.07z
								 M297.15,126.28c-0.04,0-0.08-0.01-0.11-0.04c-0.06-0.06-0.07-0.16-0.01-0.23l0.86-0.9c0.06-0.07,0.16-0.07,0.23-0.01
								c0.06,0.06,0.07,0.16,0,0.23l-0.86,0.9C297.24,126.26,297.19,126.28,297.15,126.28z M298.87,124.48
								c-0.04,0-0.08-0.01-0.11-0.04c-0.06-0.06-0.07-0.16-0.01-0.23l0.86-0.9c0.06-0.07,0.16-0.07,0.23-0.01
								c0.06,0.06,0.07,0.16,0.01,0.23l-0.86,0.9C298.96,124.46,298.92,124.48,298.87,124.48z M300.59,122.68
								c-0.04,0-0.08-0.01-0.11-0.04c-0.06-0.06-0.07-0.16-0.01-0.23l0.86-0.9c0.06-0.07,0.16-0.07,0.23-0.01
								c0.06,0.06,0.07,0.16,0.01,0.23l-0.86,0.9C300.68,122.66,300.64,122.68,300.59,122.68z M302.32,120.88
								c-0.04,0-0.08-0.01-0.11-0.04c-0.06-0.06-0.07-0.16-0.01-0.23l0.86-0.9c0.06-0.07,0.16-0.07,0.23,0
								c0.06,0.06,0.07,0.16,0.01,0.23l-0.86,0.9C302.4,120.87,302.36,120.88,302.32,120.88z M304.04,119.08
								c-0.04,0-0.08-0.01-0.11-0.04c-0.06-0.06-0.07-0.16-0.01-0.23l0.86-0.9c0.06-0.07,0.16-0.07,0.23,0
								c0.06,0.06,0.07,0.16,0.01,0.23l-0.86,0.9C304.12,119.07,304.08,119.08,304.04,119.08z M305.76,117.29
								c-0.04,0-0.08-0.01-0.11-0.04c-0.06-0.06-0.07-0.16-0.01-0.23l0.86-0.9c0.06-0.07,0.16-0.07,0.23-0.01
								c0.06,0.06,0.07,0.16,0.01,0.23l-0.86,0.9C305.84,117.27,305.8,117.29,305.76,117.29z M307.48,115.49
								c-0.04,0-0.08-0.01-0.11-0.04c-0.06-0.06-0.07-0.16-0.01-0.23l0.86-0.9c0.06-0.06,0.16-0.07,0.23-0.01
								c0.06,0.06,0.07,0.16,0.01,0.23l-0.86,0.9C307.56,115.47,307.52,115.49,307.48,115.49z M309.2,113.69
								c-0.04,0-0.08-0.01-0.11-0.04c-0.06-0.06-0.07-0.16-0.01-0.23l0.86-0.9c0.06-0.07,0.16-0.07,0.23,0
								c0.06,0.06,0.07,0.16,0.01,0.23l-0.86,0.9C309.28,113.67,309.24,113.69,309.2,113.69z M310.92,111.89
								c-0.04,0-0.08-0.01-0.11-0.04c-0.06-0.06-0.07-0.16-0.01-0.23l0.86-0.9c0.06-0.06,0.16-0.07,0.23-0.01
								c0.06,0.06,0.07,0.16,0.01,0.23l-0.86,0.9C311,111.87,310.96,111.89,310.92,111.89z M312.64,110.09
								c-0.04,0-0.08-0.01-0.11-0.04c-0.06-0.06-0.07-0.16-0.01-0.23l0.86-0.9c0.06-0.07,0.16-0.07,0.23-0.01
								c0.06,0.06,0.07,0.16,0.01,0.23l-0.86,0.9C312.72,110.08,312.68,110.09,312.64,110.09z"/>
						</g>
						<g>
							<path class="st1" d="M294.13,129.44c-0.04,0-0.08-0.01-0.11-0.04c-0.06-0.06-0.07-0.16-0.01-0.23l0.44-0.46
								c0.06-0.07,0.16-0.07,0.23-0.01c0.06,0.06,0.07,0.16,0.01,0.23l-0.44,0.46C294.21,129.42,294.17,129.44,294.13,129.44z"/>
						</g>
					</g>
					<g>
						<g>
							<path class="st1" d="M304.47,135.41c-0.09,0-0.16-0.07-0.16-0.16v-0.64c0-0.09,0.07-0.16,0.16-0.16
								c0.09,0,0.16,0.07,0.16,0.16v0.64C304.63,135.34,304.56,135.41,304.47,135.41z"/>
						</g>
						<g>
							<path class="st1" d="M304.47,133.57c-0.09,0-0.16-0.07-0.16-0.16v-1.19c0-0.09,0.07-0.16,0.16-0.16
								c0.09,0,0.16,0.07,0.16,0.16v1.19C304.63,133.5,304.56,133.57,304.47,133.57z M304.47,131.19c-0.09,0-0.16-0.07-0.16-0.16
								v-1.19c0-0.09,0.07-0.16,0.16-0.16c0.09,0,0.16,0.07,0.16,0.16v1.19C304.63,131.12,304.56,131.19,304.47,131.19z
								 M304.47,128.81c-0.09,0-0.16-0.07-0.16-0.16v-1.19c0-0.09,0.07-0.16,0.16-0.16c0.09,0,0.16,0.07,0.16,0.16v1.19
								C304.63,128.74,304.56,128.81,304.47,128.81z M304.47,126.43c-0.09,0-0.16-0.07-0.16-0.16v-1.19c0-0.09,0.07-0.16,0.16-0.16
								c0.09,0,0.16,0.07,0.16,0.16v1.19C304.63,126.35,304.56,126.43,304.47,126.43z M304.47,124.04c-0.09,0-0.16-0.07-0.16-0.16
								v-1.19c0-0.09,0.07-0.16,0.16-0.16c0.09,0,0.16,0.07,0.16,0.16v1.19C304.63,123.97,304.56,124.04,304.47,124.04z
								 M304.47,121.66c-0.09,0-0.16-0.07-0.16-0.16v-1.19c0-0.09,0.07-0.16,0.16-0.16c0.09,0,0.16,0.07,0.16,0.16v1.19
								C304.63,121.59,304.56,121.66,304.47,121.66z"/>
						</g>
						<g>
							<path class="st1" d="M304.47,119.28c-0.09,0-0.16-0.07-0.16-0.16v-0.64c0-0.06,0.03-0.11,0.08-0.14
								c0.05-0.03,0.11-0.03,0.16,0l0.56,0.32c0.08,0.04,0.1,0.14,0.06,0.22c-0.05,0.08-0.14,0.1-0.22,0.06l-0.31-0.18v0.36
								C304.63,119.21,304.56,119.28,304.47,119.28z"/>
						</g>
						<g>
							<path class="st1" d="M313.21,123.68c-0.03,0-0.06-0.01-0.08-0.02l-1.02-0.59c-0.08-0.04-0.1-0.14-0.06-0.22
								c0.04-0.08,0.14-0.1,0.22-0.06l1.02,0.59c0.08,0.04,0.1,0.14,0.06,0.22C313.32,123.65,313.27,123.68,313.21,123.68z
								 M311.16,122.5c-0.03,0-0.06-0.01-0.08-0.02l-1.02-0.59c-0.08-0.04-0.1-0.14-0.06-0.22c0.04-0.08,0.14-0.1,0.22-0.06
								l1.02,0.59c0.08,0.04,0.1,0.14,0.06,0.22C311.27,122.47,311.22,122.5,311.16,122.5z M309.12,121.32
								c-0.03,0-0.06-0.01-0.08-0.02l-1.02-0.59c-0.08-0.04-0.1-0.14-0.06-0.22c0.05-0.08,0.14-0.1,0.22-0.06l1.02,0.59
								c0.08,0.04,0.1,0.14,0.06,0.22C309.23,121.29,309.17,121.32,309.12,121.32z M307.07,120.14c-0.03,0-0.06-0.01-0.08-0.02
								l-1.02-0.59c-0.08-0.04-0.1-0.14-0.06-0.22c0.04-0.08,0.14-0.1,0.22-0.06l1.02,0.59c0.08,0.04,0.1,0.14,0.06,0.22
								C307.18,120.11,307.12,120.14,307.07,120.14z"/>
						</g>
						<g>
							<path class="st1" d="M314.79,124.59c-0.03,0-0.05-0.01-0.08-0.02l-0.56-0.32c-0.08-0.04-0.1-0.14-0.06-0.22
								c0.04-0.08,0.14-0.1,0.22-0.06l0.56,0.32c0.08,0.04,0.1,0.14,0.06,0.22C314.9,124.57,314.85,124.59,314.79,124.59z"/>
						</g>
					</g>
					<g>
						<g>
							<path class="st1" d="M304.47,102.41c-0.09,0-0.16-0.07-0.16-0.16v-0.64c0-0.09,0.07-0.16,0.16-0.16
								c0.09,0,0.16,0.07,0.16,0.16v0.64C304.63,102.33,304.56,102.41,304.47,102.41z"/>
						</g>
						<g>
							<path class="st1" d="M304.47,116.7c-0.09,0-0.16-0.07-0.16-0.16v-1.19c0-0.09,0.07-0.16,0.16-0.16
								c0.09,0,0.16,0.07,0.16,0.16v1.19C304.63,116.63,304.56,116.7,304.47,116.7z M304.47,114.32c-0.09,0-0.16-0.07-0.16-0.16
								v-1.19c0-0.09,0.07-0.16,0.16-0.16c0.09,0,0.16,0.07,0.16,0.16v1.19C304.63,114.25,304.56,114.32,304.47,114.32z
								 M304.47,111.94c-0.09,0-0.16-0.07-0.16-0.16v-1.19c0-0.09,0.07-0.16,0.16-0.16c0.09,0,0.16,0.07,0.16,0.16v1.19
								C304.63,111.87,304.56,111.94,304.47,111.94z M304.47,109.55c-0.09,0-0.16-0.07-0.16-0.16v-1.19c0-0.09,0.07-0.16,0.16-0.16
								c0.09,0,0.16,0.07,0.16,0.16v1.19C304.63,109.48,304.56,109.55,304.47,109.55z M304.47,107.17c-0.09,0-0.16-0.07-0.16-0.16
								v-1.19c0-0.09,0.07-0.16,0.16-0.16c0.09,0,0.16,0.07,0.16,0.16v1.19C304.63,107.1,304.56,107.17,304.47,107.17z
								 M304.47,104.79c-0.09,0-0.16-0.07-0.16-0.16v-1.19c0-0.09,0.07-0.16,0.16-0.16c0.09,0,0.16,0.07,0.16,0.16v1.19
								C304.63,104.72,304.56,104.79,304.47,104.79z"/>
						</g>
						<g>
							<path class="st1" d="M304.47,118.54c-0.03,0-0.06-0.01-0.08-0.02l-0.56-0.32c-0.08-0.04-0.1-0.14-0.06-0.22
								c0.04-0.08,0.14-0.1,0.22-0.06l0.32,0.18v-0.37c0-0.09,0.07-0.16,0.16-0.16c0.09,0,0.16,0.07,0.16,0.16v0.64
								c0,0.06-0.03,0.11-0.08,0.14C304.52,118.53,304.49,118.54,304.47,118.54z"/>
						</g>
						<g>
							<path class="st1" d="M302.89,117.62c-0.03,0-0.06-0.01-0.08-0.02l-1.02-0.59c-0.08-0.04-0.1-0.14-0.06-0.22
								c0.05-0.08,0.14-0.1,0.22-0.06l1.02,0.59c0.08,0.04,0.1,0.14,0.06,0.22C303,117.6,302.94,117.62,302.89,117.62z
								 M300.84,116.44c-0.03,0-0.06-0.01-0.08-0.02l-1.02-0.59c-0.08-0.04-0.1-0.14-0.06-0.22c0.04-0.08,0.14-0.1,0.22-0.06
								l1.02,0.59c0.08,0.04,0.1,0.14,0.06,0.22C300.95,116.41,300.9,116.44,300.84,116.44z M298.79,115.26
								c-0.03,0-0.06-0.01-0.08-0.02l-1.02-0.59c-0.08-0.04-0.1-0.14-0.06-0.22c0.04-0.08,0.14-0.1,0.22-0.06l1.02,0.59
								c0.08,0.04,0.1,0.14,0.06,0.22C298.9,115.23,298.85,115.26,298.79,115.26z M296.75,114.08c-0.03,0-0.06-0.01-0.08-0.02
								l-1.02-0.59c-0.08-0.04-0.1-0.14-0.06-0.22c0.05-0.08,0.14-0.1,0.22-0.06l1.02,0.59c0.08,0.04,0.1,0.14,0.06,0.22
								C296.86,114.05,296.8,114.08,296.75,114.08z"/>
						</g>
						<g>
							<path class="st1" d="M294.7,112.9c-0.03,0-0.05-0.01-0.08-0.02l-0.56-0.32c-0.08-0.04-0.1-0.14-0.06-0.22
								c0.04-0.08,0.14-0.1,0.22-0.06l0.56,0.32c0.08,0.04,0.1,0.14,0.06,0.22C294.81,112.87,294.75,112.9,294.7,112.9z"/>
						</g>
					</g>
					<path class="st13" d="M314.8,124.44c0,9.26-4.64,14.1-10.36,10.79c-5.72-3.3-10.36-13.49-10.36-22.75
						c0-9.26,4.64-14.1,10.36-10.79C310.16,104.99,314.8,115.17,314.8,124.44z"/>
				</g>
				<polygon class="st1" points="320.12,143.64 337.58,153.72 320.12,115.16 				"/>
				<path id="XMLID_690_" class="st5" d="M271.86,65.27c0-0.71,0.5-0.99,1.12-0.64l85.07,49.12c0.62,0.36,1.12,1.22,1.12,1.93v4.76
					l-87.31-50.41V65.27z"/>
				<path id="XMLID_689_" class="st6" d="M314.81,165.46c0.96,0.56,1.75,1.91,1.75,3.03c0,1.11-0.78,1.57-1.75,1.01
					c-0.96-0.56-1.75-1.91-1.75-3.03C313.06,165.36,313.84,164.91,314.81,165.46z"/>
				<path id="XMLID_688_" class="st7" d="M366.64,111.34c0.34,0.58,0.54,1.25,0.55,1.84v78.73l3.49-2.02v-78.72
					c0-0.59-0.22-1.26-0.55-1.84L366.64,111.34z"/>
			</g>
		</g>
		<g id="Tablet_1_">
			<path id="Shadow_11_" class="st8" d="M323.12,242l-53.91-31.13c-0.5-0.29-1.32-0.29-1.83,0l-32.47,18.75
				c-0.5,0.29-0.5,0.76,0,1.06l53.91,31.12c0.5,0.29,1.32,0.29,1.83,0l32.47-18.75C323.63,242.76,323.63,242.29,323.12,242z"/>
			<g id="Tablet_4_">
				<g id="XMLID_686_">
					<path id="XMLID_687_" class="st1" d="M322.23,238.65l-52.42-30.27c-0.49-0.28-1.29-0.28-1.78,0l-31.58,18.23
						c-0.49,0.28-0.89,0.97-0.89,1.54v0.35c0,0.57,0.4,1.26,0.89,1.54l52.42,30.27c0.49,0.28,1.29,0.28,1.78,0l31.58-18.23
						c0.49-0.28,0.89-0.97,0.89-1.54v-0.35C323.12,239.62,322.72,238.93,322.23,238.65z"/>
				</g>
				<g id="XMLID_684_">
					<path id="XMLID_685_" class="st1" d="M322.23,238.65l-52.42-30.27c-0.49-0.28-1.29-0.28-1.78,0l-31.58,18.23
						c-0.49,0.28-0.49,0.74,0,1.03l52.42,30.27c0.49,0.28,1.29,0.28,1.78,0l31.58-18.23C322.72,239.39,322.72,238.93,322.23,238.65z
						"/>
				</g>
				<g id="XMLID_682_" class="st14">
					<path id="XMLID_683_" d="M322.23,238.65l-52.42-30.27c-0.49-0.28-1.29-0.28-1.78,0l-31.58,18.23c-0.49,0.28-0.49,0.74,0,1.03
						l52.42,30.27c0.49,0.28,1.29,0.28,1.78,0l31.58-18.23C322.72,239.39,322.72,238.93,322.23,238.65z"/>
				</g>
				<g id="XMLID_680_">
					<path id="XMLID_681_" class="st5" d="M278.32,218.13c-0.49-0.28-1.29-0.29-1.78-0.01c-3.91,2.23-19.36,11.17-23.24,13.42
						c-0.49,0.28-0.49,0.74,0,1.03c5.11,2.95,30.66,17.69,35.75,20.64c0.49,0.28,1.29,0.29,1.78,0l23.24-13.42
						c0.49-0.28,0.49-0.74,0-1.03L278.32,218.13z"/>
				</g>
				<g>
					<g id="XMLID_678_">
						<path id="XMLID_679_" class="st5" d="M261.87,219.7c1.56,0.9,1.56,2.36,0,3.26c-1.56,0.9-4.09,0.9-5.65,0
							c-1.56-0.9-1.56-2.36,0-3.26C257.78,218.79,260.31,218.79,261.87,219.7z"/>
					</g>
					<g id="XMLID_674_">
						<path id="XMLID_677_" class="st5" d="M253.09,223.09l2.54,1.48c0.74,0.42,0.87,1.04,0.29,1.37c-0.58,0.33-1.64,0.26-2.38-0.17
							l-2.54-1.48c-0.74-0.42-0.87-1.04-0.29-1.37C251.29,222.59,252.35,222.66,253.09,223.09z"/>
						<path id="XMLID_676_" class="st5" d="M250.13,224.8l2.54,1.48c0.74,0.42,0.87,1.04,0.29,1.37c-0.58,0.33-1.64,0.26-2.38-0.17
							l-2.54-1.48c-0.74-0.42-0.87-1.04-0.29-1.37C248.32,224.3,249.39,224.38,250.13,224.8z"/>
						<path id="XMLID_675_" class="st5" d="M247.16,226.52l2.54,1.48c0.74,0.42,0.87,1.04,0.29,1.37c-0.58,0.33-1.64,0.26-2.38-0.17
							l-2.54-1.48c-0.74-0.42-0.87-1.04-0.29-1.37C245.36,226.02,246.43,226.09,247.16,226.52z"/>
					</g>
					<g id="XMLID_670_">
						<path id="XMLID_673_" class="st5" d="M270.11,213.3l2.54,1.48c0.74,0.42,0.87,1.04,0.29,1.37c-0.58,0.33-1.64,0.26-2.38-0.17
							l-2.54-1.48c-0.74-0.42-0.87-1.04-0.29-1.37C268.31,212.8,269.37,212.88,270.11,213.3z"/>
						<path id="XMLID_672_" class="st5" d="M267.15,215.02l2.54,1.48c0.74,0.42,0.87,1.04,0.29,1.37c-0.58,0.33-1.64,0.26-2.38-0.17
							l-2.54-1.48c-0.74-0.42-0.87-1.04-0.29-1.37C265.35,214.52,266.41,214.59,267.15,215.02z"/>
						<path id="XMLID_671_" class="st5" d="M264.19,216.73l2.54,1.48c0.74,0.42,0.87,1.04,0.29,1.37c-0.58,0.33-1.64,0.26-2.38-0.17
							l-2.54-1.48c-0.74-0.42-0.87-1.04-0.29-1.37C262.38,216.23,263.45,216.31,264.19,216.73z"/>
					</g>
				</g>
				<g id="XMLID_668_" class="st2">
					<path id="XMLID_669_" d="M289.77,258.12v2.4c0.32,0,0.65-0.07,0.89-0.21l31.57-18.24c0.49-0.28,0.89-0.96,0.89-1.54v-0.35
						c0-0.5-0.32-1.11-0.73-1.43c0.32,0.28,0.27,0.66-0.16,0.91l-31.57,18.23C290.41,258.05,290.1,258.12,289.77,258.12z"/>
				</g>
				<g id="XMLID_666_" class="st15">
					<path id="XMLID_667_" d="M235.56,228.15v0.36c0,0.56,0.4,1.25,0.89,1.54l52.42,30.27c0.25,0.14,0.56,0.21,0.89,0.21v-2.4
						c-0.33,0-0.65-0.07-0.89-0.22l-52.42-30.27c-0.43-0.25-0.48-0.63-0.16-0.91C235.88,227.05,235.56,227.65,235.56,228.15z"/>
				</g>
			</g>
		</g>
		<g id="Pencil_2_">
			<path id="Shadow_4_" class="st8" d="M269.19,172.01c-0.38,0.67-1.16,1.08-2.22,1.29c-0.27,0.05-0.55,0-0.79-0.14l-21.34-12.49
				l-1.92-2.26c-0.15-0.17,0.02-0.43,0.24-0.38l4.28,1.13l21.64,12.5C269.2,171.73,269.25,171.89,269.19,172.01z"/>
			<g id="XMLID_655_">
				<g id="XMLID_657_">
					<path id="XMLID_665_" class="st16" d="M248.37,157.52l-4.43-0.87c-0.13-0.03-0.22,0.13-0.13,0.23l3.01,3.41L248.37,157.52z"/>
					<path id="XMLID_664_" class="st7" d="M243.81,156.88c-0.09-0.1,0-0.25,0.13-0.23l0.87,0.17l0,0c-0.24,0.15-0.38,0.42-0.36,0.71
						l0.01,0.08L243.81,156.88z"/>
					<path id="XMLID_663_" class="st1" d="M263.35,169.77l-0.36-0.21l-0.44-0.25l-15.73-9.02c-0.16-0.48-0.08-1.01,0.12-1.47
						c0.31-0.7,0.92-1.26,1.43-1.29l15.72,9.02l0.84,0.48C264.37,166.74,262.79,169.48,263.35,169.77z"/>
					<path id="XMLID_662_" class="st9" d="M261.96,168.98l-0.81-0.47c-0.24-0.13-0.1-0.71,0.18-1.32c0.37-0.81,1.1-1.59,1.41-1.42
						l0.6,0.34l0.21,0.13c-0.32-0.17-1.05,0.61-1.41,1.42c-0.27,0.58-0.4,1.15-0.2,1.3l0,0
						C261.95,168.97,261.96,168.98,261.96,168.98z"/>
					<path id="XMLID_661_" class="st1" d="M261.76,168.86c-0.56-0.29,1.04-3.03,1.59-2.74l0.81,0.46c-0.56-0.29-2.15,2.44-1.59,2.74
						L261.76,168.86z"/>
					<path id="XMLID_660_" class="st9" d="M263.35,169.77l-0.8-0.46c-0.55-0.29,0.97-2.94,1.54-2.77c0.01,0,0.02,0.01,0.03,0.01
						l0.8,0.47C264.37,166.74,262.79,169.48,263.35,169.77z"/>
					<path id="XMLID_659_" class="st8" d="M243.79,156.73l0.15-0.08l3.22,1.76l16.63,9.54c0.03-0.05,0.06-0.05,0.08-0.02
						c-0.47,0.74-0.83,1.67-0.52,1.83l-0.36-0.21l-0.44-0.25l-15.73-9.02l0,0l-3.01-3.41C243.77,156.84,243.77,156.78,243.79,156.73
						z"/>
					<path id="XMLID_658_" class="st17" d="M266.75,171.71l-3.4-1.94c-0.24-0.12-0.11-0.7,0.17-1.31c0.37-0.81,1.09-1.6,1.41-1.44
						c0,0,0,0,0,0l3.41,1.95c0.68,0.39,0.05,1.86-0.7,2.52C267.36,171.74,267.04,171.85,266.75,171.71z"/>
				</g>
				<path id="XMLID_656_" class="st4" d="M266.54,170.66c0.19-0.77,0.82-1.52,1.39-1.68c0.21-0.06,0.38-0.03,0.51,0.07
					c0.51,0.47-0.08,1.82-0.8,2.44c-0.28,0.24-0.58,0.35-0.88,0.22C266.51,171.57,266.41,171.18,266.54,170.66z"/>
			</g>
		</g>
		<g id="Mouse_2_">
			<path class="st8" d="M313.53,221.96l6.52,3.77c2.06,1.19,5.28,1.02,7.2-0.38l10.76-7.86c1.92-1.4,1.81-3.49-0.24-4.68l-3.27-1.9
				c-2.05-1.19-5.44-1.29-7.56-0.23l-13.28,7.2C311.53,218.94,311.47,220.77,313.53,221.96z"/>
			<path class="st3" d="M338.19,214.07l-7.45,5.82l-5.49,4.3c-0.53,0.25-1.14,0.39-1.75,0.42c-0.93,0.05-1.87-0.13-2.6-0.55
				l-5.84-3.37c0,0-0.01,0-0.01-0.01c-0.01-0.01-0.02-0.01-0.03-0.02c-2.05-1.19-2.53-3.96-1.18-5.91c0.06-0.08,0.11-0.16,0.17-0.24
				c1.11-1.5,2.76-2.58,4.69-2.97l2.96-0.59c4.79-0.97,8.72-1.44,9.17-1.13l7.32,4.24C338.16,214.05,338.18,214.06,338.19,214.07z"
			/>
			<path class="st6" d="M334.03,217.33l0.42-0.33l-6.57-3.79l5.74-1.78c-0.2-0.11-0.39-0.23-0.58-0.34l-5.75,1.78l-3.91-2.26
				c-0.24,0.05-0.49,0.09-0.74,0.14L334.03,217.33z"/>
			<path class="st0" d="M325.89,223.84c0.01-0.01,0.03-0.02,0.03-0.03c0-0.01,0.01-0.01,0.01-0.01l5.23-3.77l7.06-5.1v-0.8
				c0-0.03-0.01-0.04-0.03-0.06c-0.01-0.01-0.03-0.02-0.04-0.02c-0.52-0.18-3.59,0.74-7.28,2.21l-2.45,0.97
				c-0.77,0.3-1.47,0.72-2.09,1.24c-1.76,1.45-2.83,3.65-2.83,6.01v0.13c0.61-0.03,1.22-0.17,1.75-0.42L325.89,223.84z"/>
		</g>
		<g id="Palettes_2_">
			<path id="Shadow_3_" class="st8" d="M347.02,227.76c0.13-0.24,0.39-0.41,0.71-0.46l50.87-7.87l0.2-0.02
				c0.42,0,0.78,0.2,0.93,0.51l2.2,4.74l2.72,2.72c0.08,0.08,0.12,0.17,0.16,0.27l1.51,0.87c0.26,0.15,0.41,0.4,0.41,0.67
				c0,0.27-0.15,0.52-0.41,0.67l-37.24,21.5c-0.21,0.12-0.43,0.15-0.58,0.15c-0.15,0-0.37-0.03-0.58-0.15l-7.71-4.45
				c-0.26-0.15-0.41-0.4-0.41-0.67c0-0.27,0.15-0.52,0.41-0.67l9.06-5.23l-10.6,3.53c-0.12,0.04-0.25,0.06-0.39,0.06
				c-0.3,0-0.59-0.11-0.77-0.29l-5.46-5.46c-0.19-0.19-0.26-0.45-0.2-0.69c0.06-0.27,0.28-0.49,0.58-0.59l12.04-4.01l-13.52,2.09
				l-0.2,0.02c-0.42,0-0.78-0.2-0.93-0.51l-2.82-6.08C346.9,228.2,346.91,227.96,347.02,227.76z"/>
			<g id="Palette_3_">
				<g id="XMLID_633_">
					<g id="XMLID_634_">
						<path id="XMLID_654_" class="st18" d="M360.37,243.99c0-0.06,0.04-0.12,0.12-0.17l37.24-21.5c0.16-0.09,0.43-0.09,0.59,0
							l7.71,4.45c0.08,0.05,0.12,0.11,0.12,0.17c0,0.06,0,1.09,0,1.16c0,0.06-0.04,0.12-0.12,0.17l-37.24,21.5
							c-0.16,0.09-0.43,0.09-0.59,0l-7.71-4.45c-0.08-0.05-0.12-0.11-0.12-0.17C360.37,245.08,360.37,244.05,360.37,243.99z"/>
						<path id="XMLID_653_" class="st10" d="M368.5,248.69v1.16c0.1,0,0.21-0.02,0.29-0.07l37.24-21.51
							c0.08-0.05,0.12-0.1,0.12-0.16v-1.16c0,0.07-0.03,0.12-0.12,0.16l-37.24,21.5C368.71,248.65,368.62,248.69,368.5,248.69z"/>
						<path id="XMLID_652_" class="st19" d="M397.73,222.32l-37.24,21.5c-0.16,0.09-0.16,0.25,0,0.34l7.71,4.45
							c0.16,0.09,0.43,0.09,0.59,0l37.24-21.5c0.16-0.09,0.16-0.25,0-0.34l-7.71-4.45C398.15,222.23,397.89,222.23,397.73,222.32z"
						/>
						<g id="XMLID_635_">
							<polygon id="XMLID_651_" class="st17" points="398.02,224.28 402.63,226.94 398.02,229.61 393.41,226.94 							"/>
							<polygon id="XMLID_650_" class="st20" points="398.02,224.28 402.63,226.94 398.02,229.61 393.41,226.94 							"/>
							<g id="XMLID_647_">
								<polygon id="XMLID_649_" class="st17" points="386.21,231.1 390.82,233.76 386.21,236.43 381.6,233.76 								"/>
								<polygon id="XMLID_648_" class="st21" points="386.21,231.1 390.82,233.76 386.21,236.43 381.6,233.76 								"/>
							</g>
							<g id="XMLID_644_">
								<polygon id="XMLID_646_" class="st17" points="380.31,234.51 384.92,237.17 380.31,239.84 375.69,237.17 								"/>
								<polygon id="XMLID_645_" class="st22" points="380.31,234.51 384.92,237.17 380.31,239.84 375.69,237.17 								"/>
							</g>
							<g id="XMLID_641_">
								<polygon id="XMLID_643_" class="st17" points="374.4,237.92 379.02,240.58 374.4,243.24 369.79,240.58 								"/>
								<polygon id="XMLID_642_" class="st23" points="374.4,237.92 379.02,240.58 374.4,243.24 369.79,240.58 								"/>
							</g>
							<g id="XMLID_639_">
								<polygon id="XMLID_640_" class="st17" points="368.5,241.33 373.11,243.99 368.5,246.65 363.89,243.99 								"/>
							</g>
							<g id="XMLID_636_">
								<polygon id="XMLID_638_" class="st17" points="392.12,227.69 396.73,230.35 392.12,233.02 387.5,230.35 								"/>
								<polygon id="XMLID_637_" class="st24" points="392.12,227.69 396.73,230.35 392.12,233.02 387.5,230.35 								"/>
							</g>
						</g>
					</g>
				</g>
				<g id="XMLID_631_">
					<path id="XMLID_632_" class="st7" d="M397.55,223.65c0.26,0.15,0.68,0.15,0.94,0c0.26-0.15,0.26-0.39,0-0.54
						c-0.26-0.15-0.68-0.15-0.94,0C397.3,223.26,397.3,223.5,397.55,223.65z"/>
				</g>
			</g>
			<g id="Palette_2_">
				<g id="XMLID_610_">
					<path id="XMLID_630_" class="st18" d="M352.4,235.41c0-0.08,0.08-0.16,0.21-0.21l45.61-15.2c0.2-0.07,0.45-0.03,0.57,0.09
						l5.45,5.45c0.04,0.04,0.06,0.08,0.06,0.13l0,1.14c0,0.09-0.07,0.17-0.21,0.21l-45.61,15.2c-0.2,0.07-0.45,0.03-0.57-0.09
						l-5.45-5.45c-0.04-0.04-0.06-0.08-0.06-0.12C352.4,236.48,352.4,235.45,352.4,235.41z"/>
					<path id="XMLID_629_" class="st10" d="M358.15,241.09v1.17c0.1,0.01,0.22,0.01,0.32-0.02l45.61-15.2
						c0.14-0.05,0.22-0.13,0.21-0.22v-1.14c0,0.08-0.08,0.16-0.21,0.21l-45.61,15.2C358.37,241.11,358.26,241.12,358.15,241.09z"/>
					<path id="XMLID_628_" class="st19" d="M398.21,220l-45.61,15.2c-0.2,0.07-0.27,0.21-0.15,0.33l5.45,5.45
						c0.12,0.12,0.37,0.15,0.57,0.09l45.61-15.2c0.2-0.07,0.27-0.21,0.15-0.33l-5.45-5.45C398.67,219.97,398.41,219.93,398.21,220z"
					/>
					<g id="XMLID_611_">
						<polygon id="XMLID_627_" class="st1" points="397.62,221.94 400.88,225.2 395.23,227.08 391.97,223.82 						"/>
						<g id="XMLID_624_">
							<polygon id="XMLID_626_" class="st1" points="383.16,226.76 386.42,230.02 380.77,231.9 377.51,228.64 							"/>
							<polygon id="XMLID_625_" class="st25" points="383.16,226.76 386.42,230.02 380.77,231.9 377.51,228.64 							"/>
						</g>
						<g id="XMLID_621_">
							<polygon id="XMLID_623_" class="st1" points="375.92,229.17 379.19,232.43 373.54,234.32 370.27,231.05 							"/>
							<polygon id="XMLID_622_" class="st26" points="375.92,229.17 379.19,232.43 373.54,234.32 370.27,231.05 							"/>
						</g>
						<g id="XMLID_618_">
							<polygon id="XMLID_620_" class="st1" points="368.69,231.58 371.95,234.84 366.3,236.73 363.04,233.46 							"/>
							<polygon id="XMLID_619_" class="st26" points="368.69,231.58 371.95,234.84 366.3,236.73 363.04,233.46 							"/>
						</g>
						<g id="XMLID_615_">
							<polygon id="XMLID_617_" class="st1" points="361.46,233.99 364.72,237.25 359.07,239.14 355.81,235.88 							"/>
							<polygon id="XMLID_616_" class="st15" points="361.46,233.99 364.72,237.25 359.07,239.14 355.81,235.88 							"/>
						</g>
						<g id="XMLID_612_">
							<polygon id="XMLID_614_" class="st1" points="390.39,224.35 393.65,227.61 388,229.49 384.74,226.23 							"/>
							<polygon id="XMLID_613_" class="st8" points="390.39,224.35 393.65,227.61 388,229.49 384.74,226.23 							"/>
						</g>
					</g>
				</g>
				<g id="XMLID_608_">
					<path id="XMLID_609_" class="st7" d="M397.45,221.26c0.18,0.18,0.59,0.25,0.9,0.14c0.32-0.11,0.42-0.34,0.24-0.52
						c-0.18-0.18-0.59-0.25-0.9-0.14C397.38,220.85,397.27,221.08,397.45,221.26z"/>
				</g>
			</g>
			<g id="Palette_1_">
				<g id="XMLID_586_">
					<g id="XMLID_587_">
						<path id="XMLID_607_" class="st18" d="M347.51,225.84c0-0.11,0.12-0.2,0.31-0.23l50.87-7.87c0.22-0.03,0.45,0.04,0.51,0.17
							l2.82,6.08c0.01,0.02,0.01,0.04,0.01,0.06l0,1.16c0,0.11-0.12,0.2-0.31,0.23l-50.87,7.87c-0.22,0.03-0.45-0.04-0.51-0.17
							l-2.82-6.08c-0.01-0.02-0.01-0.04-0.01-0.07V225.84z"/>
						<path id="XMLID_606_" class="st10" d="M350.61,232.16v1.14c0.08,0.01,0.16,0.03,0.25,0.01l50.86-7.87
							c0.18-0.02,0.31-0.13,0.31-0.23v-1.16c0,0.1-0.13,0.2-0.31,0.23l-50.86,7.87C350.77,232.17,350.69,232.17,350.61,232.16z"/>
						<path id="XMLID_605_" class="st19" d="M398.69,217.75l-50.87,7.87c-0.22,0.03-0.35,0.17-0.3,0.3l2.82,6.08
							c0.06,0.13,0.29,0.2,0.51,0.17l50.87-7.87c0.22-0.03,0.35-0.17,0.3-0.3l-2.82-6.08C399.14,217.79,398.91,217.71,398.69,217.75
							z"/>
						<g id="XMLID_588_">
							<polygon id="XMLID_604_" class="st1" points="397.24,219.53 398.93,223.17 392.63,224.14 390.94,220.5 							"/>
							<polygon id="XMLID_603_" class="st27" points="397.24,219.53 398.93,223.17 392.63,224.14 390.94,220.5 							"/>
							<g id="XMLID_600_">
								<polygon id="XMLID_602_" class="st1" points="381.11,222.02 382.8,225.66 376.5,226.64 374.81,223 								"/>
								<polygon id="XMLID_601_" class="st28" points="381.11,222.02 382.8,225.66 376.5,226.64 374.81,223 								"/>
							</g>
							<g id="XMLID_597_">
								<polygon id="XMLID_599_" class="st1" points="373.05,223.27 374.73,226.91 368.43,227.88 366.74,224.25 								"/>
								<polygon id="XMLID_598_" class="st29" points="373.05,223.27 374.73,226.91 368.43,227.88 366.74,224.25 								"/>
							</g>
							<g id="XMLID_594_">
								<polygon id="XMLID_596_" class="st1" points="364.98,224.52 366.67,228.16 360.37,229.13 358.68,225.49 								"/>
								<polygon id="XMLID_595_" class="st30" points="364.98,224.52 366.67,228.16 360.37,229.13 358.68,225.49 								"/>
							</g>
							<g id="XMLID_592_">
								<polygon id="XMLID_593_" class="st1" points="356.91,225.77 358.6,229.4 352.3,230.38 350.61,226.74 								"/>
							</g>
							<g id="XMLID_589_">
								<polygon id="XMLID_591_" class="st1" points="389.18,220.78 390.87,224.41 384.56,225.39 382.88,221.75 								"/>
								<polygon id="XMLID_590_" class="st31" points="389.18,220.78 390.87,224.41 384.56,225.39 382.88,221.75 								"/>
							</g>
						</g>
					</g>
				</g>
				<g id="XMLID_584_">
					<path id="XMLID_585_" class="st7" d="M397.38,218.85c0.09,0.2,0.46,0.32,0.81,0.27c0.35-0.05,0.56-0.26,0.47-0.47
						c-0.09-0.2-0.46-0.32-0.81-0.27C397.5,218.44,397.29,218.65,397.38,218.85z"/>
				</g>
			</g>
		</g>
		<g id="Coffe_2_">
			<g id="XMLID_582_" class="st8">
				<path id="XMLID_583_" d="M329.86,276.5c4.47-1.99,11.59-1.99,15.91,0c4.32,1.99,4.32,5.23,0,7.22c-4.32,1.99-11.44,1.99-15.91,0
					C325.4,281.73,325.4,278.5,329.86,276.5z"/>
			</g>
			<g id="XMLID_548_">
				<g id="XMLID_580_">
					<path id="XMLID_581_" class="st19" d="M326.9,253.2l21.72,0.02l-1.65,25.59h-0.02c-0.1,0.93-0.97,1.85-2.63,2.56
						c-3.54,1.52-9.37,1.52-13.03,0c-1.72-0.71-2.62-1.63-2.72-2.56h-0.02L326.9,253.2z"/>
				</g>
				<g id="XMLID_578_">
					<path id="XMLID_579_" class="st10" d="M348.62,253.23l-0.33,5.2c-0.5,0.35-1.09,0.67-1.81,0.97c-4.7,1.94-12.44,1.94-17.3,0
						c-0.21-0.08-0.39-0.18-0.58-0.26c-0.77-0.37-1.36-0.77-1.36-0.77l-0.33-5.16L348.62,253.23z"/>
				</g>
				<g id="XMLID_556_">
					<g id="XMLID_576_">
						<path id="XMLID_577_" class="st1" d="M326.51,254.07v-3.6h2.33c0.31-0.16,0.65-0.32,1.02-0.47c4.47-1.79,11.59-1.79,15.91,0
							c0.36,0.15,0.68,0.31,0.98,0.47h2.26v3.6l0,0c0,1.17-1.08,2.34-3.24,3.24c-4.32,1.79-11.44,1.79-15.91,0
							C327.63,256.41,326.51,255.24,326.51,254.07z"/>
					</g>
					<g id="XMLID_574_" class="st14">
						<path id="XMLID_575_" d="M326.51,254.07v-3.6h2.33c0.31-0.16,0.65-0.32,1.02-0.47c4.47-1.79,11.59-1.79,15.91,0
							c0.36,0.15,0.68,0.31,0.98,0.47h2.26v3.6l0,0c0,1.17-1.08,2.34-3.24,3.24c-4.32,1.79-11.44,1.79-15.91,0
							C327.63,256.41,326.51,255.24,326.51,254.07z"/>
					</g>
					<g id="XMLID_572_">
						<path id="XMLID_573_" class="st1" d="M329.86,247.23c4.47-1.79,11.59-1.79,15.91,0c4.32,1.79,4.32,4.69,0,6.48
							c-4.32,1.79-11.44,1.79-15.91,0C325.4,251.92,325.4,249.02,329.86,247.23z"/>
					</g>
					<g id="XMLID_557_">
						<path id="XMLID_571_" class="st1" d="M329.39,249.46L329.39,249.46l0.89-2.4h14.96l0.9,2.4h-0.01
							c0.34,0.93-0.44,1.91-2.35,2.63c-3.25,1.22-8.6,1.22-11.96,0C329.85,251.37,329.04,250.39,329.39,249.46z"/>
						<path id="XMLID_570_" class="st14" d="M329.39,249.46L329.39,249.46l0.89-2.4h14.96l0.9,2.4h-0.01
							c0.34,0.93-0.44,1.91-2.35,2.63c-3.25,1.22-8.6,1.22-11.96,0C329.85,251.37,329.04,250.39,329.39,249.46z"/>
						<g id="XMLID_568_">
							<path id="XMLID_569_" class="st1" d="M332.48,245.38c2.99-1.09,7.75-1.09,10.64,0c2.89,1.09,2.89,2.85,0,3.93
								c-2.89,1.09-7.65,1.09-10.64,0C329.49,248.23,329.49,246.47,332.48,245.38z"/>
						</g>
						<g id="XMLID_566_" class="st2">
							<path id="XMLID_567_" class="st3" d="M332.48,245.38c2.99-1.09,7.75-1.09,10.64,0c2.89,1.09,2.89,2.85,0,3.93
								c-2.89,1.09-7.65,1.09-10.64,0C329.49,248.23,329.49,246.47,332.48,245.38z"/>
						</g>
						<g id="XMLID_564_">
							<path id="XMLID_565_" class="st1" d="M331.28,247.35c0.01,0.04,0.08,0.18,0.33,0.37c0.23,0.18,0.62,0.4,1.23,0.62
								c1.32,0.48,3.14,0.75,5,0.75c1.86,0,3.65-0.27,4.92-0.75c0.59-0.22,0.97-0.45,1.18-0.63c0.24-0.2,0.31-0.34,0.31-0.38
								c0-0.07-0.26-0.53-1.49-1c-1.27-0.48-3.06-0.75-4.92-0.75c-1.86,0-3.69,0.27-5,0.75
								C331.59,246.81,331.28,247.26,331.28,247.35z"/>
						</g>
						<g id="XMLID_562_" class="st14">
							<path id="XMLID_563_" d="M331.28,247.35c0.01,0.04,0.08,0.18,0.33,0.37c0.23,0.18,0.62,0.4,1.23,0.62
								c1.32,0.48,3.14,0.75,5,0.75c1.86,0,3.65-0.27,4.92-0.75c0.59-0.22,0.97-0.45,1.18-0.63c0.24-0.2,0.31-0.34,0.31-0.38
								c0-0.07-0.26-0.53-1.49-1c-1.27-0.48-3.06-0.75-4.92-0.75c-1.86,0-3.69,0.27-5,0.75
								C331.59,246.81,331.28,247.26,331.28,247.35z"/>
						</g>
						<g id="XMLID_560_">
							<path id="XMLID_561_" class="st1" d="M331.61,247.73c0.23,0.18,0.62,0.4,1.23,0.62c1.32,0.48,3.14,0.75,5,0.75
								c1.86,0,3.65-0.27,4.92-0.75c0.59-0.22,0.97-0.45,1.18-0.63c-0.22-0.18-0.59-0.4-1.18-0.63c-1.27-0.48-3.06-0.75-4.92-0.75
								c-1.86,0-3.69,0.27-5,0.75C332.23,247.33,331.84,247.55,331.61,247.73z"/>
						</g>
						<g id="XMLID_558_">
							<path id="XMLID_559_" d="M334.6,247.79c-0.43-0.25-0.96-0.35-1.18-0.23c-0.22,0.12-0.04,0.42,0.39,0.67
								c0.43,0.25,0.96,0.35,1.18,0.22C335.21,248.34,335.03,248.04,334.6,247.79z"/>
						</g>
					</g>
				</g>
				<g>
					<g id="XMLID_554_">
						<path id="XMLID_555_" class="st32" d="M347.66,273.04c0,0.95-0.95,1.9-2.85,2.62c-3.8,1.45-10.06,1.45-13.99,0
							c-1.96-0.72-2.94-1.67-2.95-2.62l-0.61-9.26c0,1.01,1.04,2.01,3.13,2.78c4.17,1.54,10.82,1.54,14.85,0
							c2.02-0.77,3.02-1.77,3.02-2.78L347.66,273.04z"/>
					</g>
					<g id="XMLID_549_">
						<g id="XMLID_552_">
							<path id="XMLID_553_" class="st33" d="M334.39,273.5c-0.35-0.47-0.55-1.06-0.83-1.57c-0.57-1.02-1.38-1.72-2.42-2.13
								c-0.14-0.06-0.31,0-0.38,0.14c-0.53,1.07-0.2,2.57,0.89,3.66c1.08,1.08,2.56,1.41,3.63,0.91c0.06-0.03,0.08-0.15,0.03-0.18
								C334.97,274.12,334.66,273.85,334.39,273.5z"/>
						</g>
						<g id="XMLID_550_">
							<path id="XMLID_551_" class="st33" d="M331.72,269.5c0.56,0.21,1.09,0.55,1.53,0.94c0.47,0.41,0.84,0.94,1.1,1.51
								c0.41,0.86,0.79,1.4,1.39,1.84c0.13,0.1,0.33,0.07,0.42-0.06c0.71-1.08,0.43-2.73-0.74-3.9c-1.11-1.11-2.66-1.43-3.73-0.86
								C331.47,269.08,331.49,269.41,331.72,269.5z"/>
						</g>
					</g>
				</g>
			</g>
		</g>
		<g id="Lamp_2_">
			<path id="XMLID_547_" class="st8" d="M223.81,127.71c-6.58,3.8-6.58,9.96,0,13.76c6.58,3.8,17.25,3.8,23.83,0
				c6.58-3.8,6.58-9.96,0-13.76C241.06,123.91,230.39,123.91,223.81,127.71z"/>
			<path id="XMLID_546_" class="st1" d="M250.78,130.1c-0.68-1.48-2.02-2.89-4.04-4.05c-6.09-3.51-15.95-3.51-22.04,0
				c-2.01,1.16-3.36,2.57-4.04,4.05h-0.53v2.31l0,0c0,2.3,1.52,4.6,4.56,6.36c6.08,3.51,15.95,3.51,22.04,0
				c3.04-1.76,4.56-4.06,4.56-6.36l0,0v-2.31H250.78z"/>
			<path id="XMLID_545_" class="st15" d="M250.78,130.1c-0.68-1.48-2.02-2.89-4.04-4.05c-6.09-3.51-15.95-3.51-22.04,0
				c-2.01,1.16-3.36,2.57-4.04,4.05h-0.53v2.31l0,0c0,2.3,1.52,4.6,4.56,6.36c6.08,3.51,15.95,3.51,22.04,0
				c3.04-1.76,4.56-4.06,4.56-6.36l0,0v-2.31H250.78z"/>
			<path id="XMLID_544_" class="st1" d="M224.71,136.46c-6.09-3.51-6.09-9.21,0-12.72c6.08-3.51,15.95-3.51,22.04,0
				c6.08,3.51,6.09,9.21,0,12.72C240.66,139.98,230.79,139.98,224.71,136.46z"/>
			<path id="XMLID_543_" class="st14" d="M224.71,136.46c-6.09-3.51-6.09-9.21,0-12.72c6.08-3.51,15.95-3.51,22.04,0
				c6.08,3.51,6.09,9.21,0,12.72C240.66,139.98,230.79,139.98,224.71,136.46z"/>
			<g>
				<path class="st1" d="M239.11,128.71l-2.92-1.03c12.5-35.63-16.7-47.03-17.95-47.5l1.08-2.9
					C219.66,77.41,252.63,90.17,239.11,128.71z"/>
			</g>
			<g id="XMLID_540_">
				<path id="XMLID_542_" class="st5" d="M241.74,130.1c0-3.32-2.69-6.01-6.01-6.01c-3.32,0-6.01,2.69-6.01,6.01h0
					c0,0.89,0.59,1.78,1.76,2.45c2.35,1.35,6.15,1.35,8.5,0C241.15,131.88,241.74,130.99,241.74,130.1L241.74,130.1z"/>
				<path id="XMLID_541_" class="st7" d="M239.73,129.74c-0.43,2.5-5.56,3.74-7.63,3.13c2.36,1.03,5.73,0.93,7.88-0.31
					c1.17-0.68,1.76-1.57,1.76-2.45c0-3.32-2.69-6.01-6.01-6.01C237.19,124.09,240.16,127.23,239.73,129.74z"/>
			</g>
			<g id="XMLID_529_">
				<path id="XMLID_539_" d="M218.95,78.1l-1.04-1.2l3.66-3.18c0.33-0.29,0.83-0.25,1.12,0.08l0,0c0.29,0.33,0.25,0.83-0.08,1.12
					L218.95,78.1z"/>
				<path id="XMLID_538_" class="st5" d="M221.24,80.12c0.88-1.1,0.11-3.12-0.9-4.28c-1.01-1.16-2.9-2.19-4.11-1.48
					c-1.21,0.72-3.6,2.46-3.6,2.46l5.68,6.52C218.3,83.35,220.36,81.22,221.24,80.12z"/>
				<path id="XMLID_537_" class="st7" d="M218.46,74.45c1.28,1.49,1.82,4.28-1.95,6.84l1.79,2.06c0,0,2.06-2.13,2.93-3.23
					c0.88-1.1,0.11-3.12-0.9-4.28C219.86,75.29,219.17,74.77,218.46,74.45z"/>
				<path id="XMLID_536_" class="st1" d="M209.37,106.05c4.88-4.25,12.8-20.33,7.11-26.86c-5.68-6.53-22.7-0.89-27.58,3.35"/>
				<path id="XMLID_535_" class="st14" d="M209.37,106.05c4.88-4.25,12.8-20.33,7.11-26.86c-5.68-6.53-22.7-0.89-27.58,3.35"/>
				<path id="XMLID_534_" class="st1" d="M187.86,89.52c-1.76-6.53,1.86-9.69,8.09-7.05c6.23,2.64,12.71,10.08,14.47,16.62
					c1.76,6.53-1.86,9.69-8.09,7.04C196.1,103.49,189.62,96.05,187.86,89.52z"/>
				<path id="XMLID_533_" class="st15" d="M187.86,89.52c-1.76-6.53,1.86-9.69,8.09-7.05c6.23,2.64,12.71,10.08,14.47,16.62
					c1.76,6.53-1.86,9.69-8.09,7.04C196.1,103.49,189.62,96.05,187.86,89.52z"/>
				<path id="XMLID_532_" class="st1" d="M208.17,94.78c0.11-0.1,0.21-0.2,0.32-0.31c-2-3.6-5.03-7.08-8.33-9.53
					c-0.11,0.08-0.22,0.16-0.32,0.25c-2.65,2.3-2.92,6.31-0.62,8.96C201.51,96.8,205.53,97.08,208.17,94.78z"/>
				<path id="XMLID_530_" class="st29" d="M208.17,94.78c0.11-0.1,0.21-0.2,0.32-0.31c-2-3.6-5.03-7.08-8.33-9.53
					c-0.11,0.08-0.22,0.16-0.32,0.25c-2.65,2.3-2.92,6.31-0.62,8.96C201.51,96.8,205.53,97.08,208.17,94.78z"/>
			</g>
		</g>
		<g id="Image_2_">
			<g id="XMLID_525_">
				<path id="XMLID_528_" class="st10" d="M336.75,72.85l47.77,27.59c0.62,0.36,1.12,1.22,1.12,1.93v45.52
					c0,0.71-0.5,1.58-1.12,1.93l-0.71,0.41c-0.62,0.36-1.62,0.36-2.23,0l-47.77-27.59c-0.62-0.36-1.12-1.22-1.12-1.93l0-45.52
					c0-0.71,0.5-1.58,1.12-1.93l0.71-0.41C335.13,72.49,336.13,72.49,336.75,72.85z"/>
				<path id="XMLID_527_" class="st3" d="M332.73,74.86c0.14-0.46,0.57-0.61,1.07-0.31l47.77,27.59c0.31,0.17,0.58,0.48,0.79,0.83
					l2.94-1.7c-0.2-0.35-0.47-0.65-0.78-0.83l-47.78-27.59c-0.61-0.35-1.62-0.35-2.24,0l-0.7,0.41
					C333.28,73.56,332.84,74.23,332.73,74.86z"/>
				<path id="XMLID_526_" class="st11" d="M333.8,74.55l47.77,27.59c0.62,0.36,1.12,1.22,1.12,1.93l0,45.52c0,0.71-0.5,1-1.12,0.64
					l-47.77-27.59c-0.62-0.36-1.12-1.22-1.12-1.93l0-45.52C332.69,74.48,333.19,74.19,333.8,74.55z"/>
			</g>
			<g id="XMLID_522_">
				<polygon id="XMLID_524_" class="st1" points="379.75,104.48 335.63,79 335.63,119.79 379.75,145.27 				"/>
				<polygon id="XMLID_523_" class="st28" points="379.75,104.48 335.63,79 335.63,119.79 379.75,145.27 				"/>
			</g>
			<polygon id="XMLID_521_" class="st1" points="379.75,131.67 367.21,110.01 350.03,122.82 354.21,118.19 345.1,106.12
				335.63,112.13 335.63,119.79 379.75,145.27 			"/>
			<path id="XMLID_520_" class="st1" d="M348.89,93.89c1.63,0.94,2.94,3.22,2.94,5.1c0,1.88-1.32,2.64-2.94,1.7
				c-1.63-0.94-2.94-3.22-2.94-5.1S347.26,92.95,348.89,93.89z"/>
		</g>
	</g>
</g>
	<g id="Pen_tool_1_">
	<g id="Pen_tool_3_">
		<g id="XMLID_168_">
			<g id="XMLID_181_">
				<path id="XMLID_182_" class="st1" d="M423.66,157.71c1.28,0.74,2.32,2.72,2.32,4.43c0,1.52-0.83,2.31-1.91,1.94v32.25
					l11.75-24.67c0.2-0.41,0.21-1.09,0.02-1.51c-2.97-6.87-5.16-14.61-5.91-22.55c-0.04-0.46-0.39-1.01-0.79-1.24l-10.98-6.34
					c-0.4-0.23-0.75-0.04-0.8,0.41c-0.74,6.87-2.84,11.97-5.69,15.39c-0.29,0.35-0.43,0.98-0.3,1.42
					c1.65,5.37,11.18,36.35,11.87,38.61V163.6c-1.09-0.88-1.91-2.62-1.91-4.14C421.35,157.75,422.38,156.97,423.66,157.71z"/>
			</g>
			<path id="XMLID_180_" class="st1" d="M406,160.35l11.87,38.61l0.81-0.47v0.94l5.38-3.1l11.75-24.67c0.2-0.41,0.21-1.09,0.02-1.51
				c-2.97-6.87-5.16-14.61-5.91-22.55c-0.04-0.46-0.39-1.01-0.79-1.24l-10.98-6.34c-0.4-0.23-1.04-0.23-1.43,0l-3.95,2.28
				c-0.4,0.23-0.75,0.78-0.8,1.24c-0.74,6.87-2.84,11.97-5.69,15.39C406.01,159.29,405.87,159.92,406,160.35z"/>
			<path id="XMLID_179_" class="st14" d="M415.97,162.57c0,1.52,0.82,3.26,1.91,4.14v32.25l0.81-0.47l0,0.94v-32.25
				c1.09,0.37,1.91-0.41,1.91-1.93c0-1.71-1.04-3.69-2.32-4.43C417,160.08,415.97,160.86,415.97,162.57z"/>
			<g id="XMLID_177_">
				<path id="XMLID_178_" class="st1" d="M406,160.35l11.87,38.61v-32.25c-1.09-0.88-1.91-2.62-1.91-4.14
					c0-1.71,1.04-2.49,2.31-1.75c1.28,0.74,2.32,2.72,2.32,4.43c0,1.52-0.82,2.3-1.91,1.93v32.25l11.76-24.66
					c0.2-0.41,0.21-1.09,0.02-1.5c-2.97-6.87-5.16-14.61-5.91-22.55c-0.04-0.46-0.39-1.01-0.79-1.24l-10.98-6.34
					c-0.4-0.23-0.75-0.04-0.8,0.41c-0.74,6.87-2.84,11.97-5.69,15.39C406.01,159.29,405.87,159.92,406,160.35z"/>
			</g>
			<path id="XMLID_176_" class="st4" d="M424.34,150.08c0.12,0.2,0.2,0.43,0.22,0.63c0.75,7.94,2.94,15.68,5.91,22.55
				c0.1,0.23,0.14,0.53,0.13,0.82l5.38-3.11c0.01-0.29-0.03-0.6-0.13-0.83c-2.97-6.87-5.16-14.61-5.91-22.55
				c-0.02-0.21-0.1-0.43-0.23-0.64L424.34,150.08z"/>
			<path id="XMLID_175_" class="st2" d="M412.02,143.43c0.09-0.37,0.42-0.5,0.77-0.29l10.98,6.34c0.22,0.13,0.42,0.35,0.57,0.61
				l5.38-3.11c-0.15-0.25-0.35-0.48-0.56-0.6l-10.98-6.34c-0.4-0.23-1.04-0.23-1.44,0l-3.94,2.28
				C412.43,142.52,412.1,143,412.02,143.43z"/>
			<g id="XMLID_171_">
				<path id="XMLID_174_" class="st1" d="M432.36,136.52l-17.39-10.04c-0.4-0.23-1.04-0.23-1.43,0l-3.95,2.28
					c-0.4,0.23-0.72,0.78-0.72,1.24v7.66c0,0.46,0.32,1.01,0.72,1.24l17.39,10.04c0.4,0.23,1.04,0.23,1.43,0l3.95-2.28
					c0.4-0.23,0.72-0.78,0.72-1.24v-7.66C433.08,137.31,432.75,136.75,432.36,136.52z"/>
				<path id="XMLID_173_" class="st12" d="M408.87,129.88c0.05-0.37,0.35-0.51,0.71-0.3l17.39,10.04c0.2,0.11,0.38,0.31,0.51,0.54
					l5.38-3.11c-0.13-0.23-0.31-0.42-0.51-0.54l-17.39-10.05c-0.4-0.23-1.04-0.23-1.43,0l-3.95,2.28
					C409.22,128.97,408.92,129.45,408.87,129.88z"/>
				<path id="XMLID_172_" class="st14" d="M427.09,149c0.01,0,0.01,0,0.02,0.01c0.01,0,0.03,0.01,0.04,0.01
					c0.01,0.01,0.03,0.01,0.05,0.02c0.02,0.01,0.05,0.02,0.07,0.02c0.03,0.01,0.06,0.01,0.09,0.02c0.02,0,0.04,0.01,0.06,0.01
					c0.04,0.01,0.08,0.01,0.12,0.02c0.31,0.03,0.64-0.02,0.87-0.16l3.95-2.28c0.4-0.23,0.72-0.78,0.72-1.24v-7.66
					c0-0.23-0.08-0.48-0.21-0.71l-5.38,3.11c0.13,0.23,0.21,0.48,0.21,0.71v7.66c0,0.32-0.16,0.51-0.4,0.51c-0.03,0-0.07,0-0.1-0.01
					C427.16,149.03,427.13,149.02,427.09,149z"/>
			</g>
			<path id="XMLID_170_" class="st14" d="M418.69,199.43l5.38-3.1l11.75-24.67c0.09-0.19,0.14-0.43,0.15-0.68l-5.38,3.11
				c-0.01,0.25-0.06,0.49-0.15,0.68L418.69,199.43z"/>
			<path id="XMLID_169_" class="st8" d="M417.88,166.71v32.25l0.81-0.47v0.94l0-32.25c1.09,0.37,1.91-0.41,1.91-1.93
				c0-0.04,0-0.07,0-0.11L417.88,166.71z"/>
		</g>
		<g id="XMLID_161_">
			<path id="XMLID_167_" class="st6" d="M393.01,157.43c0-0.88,0.62-1.23,1.37-0.79c0.76,0.44,1.37,1.5,1.37,2.38
				c0,0.71-0.41,1.07-0.96,0.95c0.77,16.2,12.12,35.3,25.95,43.28c6.87,3.97,13.32,4.62,18.15,1.83c4.56-2.63,7.18-8.05,7.46-15.33
				c-0.57-0.52-0.98-1.36-0.98-2.08c0-0.88,0.62-1.23,1.37-0.79c0.76,0.44,1.37,1.5,1.37,2.38c0,0.75-0.45,1.11-1.05,0.93
				c-0.37,7.34-3.11,12.81-7.81,15.52c-2.09,1.2-4.45,1.8-7,1.8c-3.65,0-7.69-1.22-11.87-3.64c-14.15-8.17-25.73-27.8-26.33-44.32
				C393.45,159.05,393.01,158.17,393.01,157.43z"/>
			<path id="XMLID_166_" class="st6" d="M394.39,186.94c0.63,0.36,1.16,1.16,1.32,1.93l49.74,28.72c0.18-0.54,0.69-0.71,1.3-0.35
				c0.76,0.44,1.37,1.5,1.37,2.38c0,0.88-0.61,1.23-1.37,0.79c-0.65-0.38-1.19-1.21-1.33-1.99l-49.71-28.7
				c-0.16,0.58-0.69,0.77-1.32,0.4c-0.76-0.44-1.37-1.5-1.37-2.38C393.01,186.85,393.63,186.5,394.39,186.94z"/>
			<path id="XMLID_165_" class="st6" d="M444.83,188.45c0,1.08,0.87,1.95,1.95,1.95c1.08,0,1.95-0.87,1.95-1.95
				s-0.87-1.95-1.95-1.95C445.7,186.5,444.83,187.37,444.83,188.45z"/>
			<path id="XMLID_164_" class="st6" d="M444.9,218.77c0,1.08,0.87,1.95,1.95,1.95c1.08,0,1.95-0.87,1.95-1.95
				c0-1.08-0.87-1.95-1.95-1.95C445.78,216.82,444.9,217.69,444.9,218.77z"/>
			<path id="XMLID_163_" class="st6" d="M392.32,188.57c0,1.08,0.87,1.95,1.95,1.95c1.08,0,1.95-0.87,1.95-1.95
				c0-1.08-0.87-1.95-1.95-1.95C393.2,186.62,392.32,187.49,392.32,188.57z"/>
			<path id="XMLID_162_" class="st6" d="M392.5,158.19c0,1.08,0.87,1.95,1.95,1.95c1.08,0,1.95-0.87,1.95-1.95
				c0-1.08-0.87-1.95-1.95-1.95C393.38,156.23,392.5,157.11,392.5,158.19z"/>
		</g>
	</g>
</g>
	<g id="Character">
	<g id="Character_1_">
		<g id="Legs_1_">
			<g>
				<g>
					<g id="XMLID_474_">
						<path id="XMLID_475_" class="st7" d="M207.57,328.28c-1.23,1.77-0.8,5.75-0.98,7.42c-0.19,1.65-0.17,3.32-0.33,4.95
							c-0.19,1.85-0.36,3.4,0.62,5.11c1.29,2.24,3.83,3.56,6.4,3.9c2.57,0.34,5.17-0.17,7.66-0.86c2.49-0.69,4.95-1.56,7.5-1.97
							c6.41-1.02,12.73,0.86,19.08-1.1c1.49-0.46,2.92-1.07,4.36-1.67c1.29-0.55,2.59-1.1,3.8-1.82c3.04-1.83,7.32-5.72,6.91-9.55
							c-0.37-3.42-2.53-5.74-6.55-5.56c-5.18,0.23-10.31,1.4-15.49,1.28c-3.15-0.07-6.71-0.24-9.81-0.79
							c-3.58-0.64-6.78-1.49-7.18-3.47c-0.63-3.14-7.55,0.09-10.32,1.45c-0.89,0.43-1.72,0.98-2.6,1.41
							c-0.72,0.35-1.36,0.28-2.07,0.51C208.14,327.64,207.82,327.91,207.57,328.28z"/>
					</g>
					<path class="st16" d="M204.98,317.47l17.66-5.58c0,0,0.21,9.27,1.06,11.51c0.85,2.24,3.44,3.57,7.03,4.21
						c3.1,0.55,6.66,0.72,9.81,0.79c1.4,0.03,2.8-0.03,4.19-0.13l0,0c4.62-0.48,9.52,3.45,2.85,6.63
						c-5.97,2.84-14.43,2.43-20.99,2.8c-6.56,0.37-17.44-2.86-19.08-7.74c0,0,0,0,0,0L204.98,317.47z"/>
				</g>
				<g id="XMLID_472_">
					<path id="XMLID_473_" class="st5" d="M218.14,253.41c3.95,16.28,4.87,65.67,4.87,65.67s-9.07,4.83-17.33,1.92L191,263.84
						L218.14,253.41z"/>
				</g>
			</g>
			<g>
				<g id="XMLID_470_">
					<path id="XMLID_471_" class="st7" d="M246.84,351.21c-1.23,1.77-0.8,5.75-0.98,7.42c-0.19,1.65-0.17,3.32-0.33,4.95
						c-0.19,1.85-0.36,3.4,0.62,5.11c1.29,2.24,3.83,3.56,6.4,3.9c2.56,0.34,5.17-0.17,7.66-0.86c2.49-0.69,4.95-1.56,7.5-1.97
						c6.41-1.02,12.73,0.86,19.08-1.1c1.49-0.46,2.92-1.07,4.36-1.67c1.29-0.55,2.59-1.1,3.8-1.82c3.04-1.83,7.32-5.72,6.91-9.55
						c-0.37-3.42-2.53-5.74-6.55-5.56c-5.18,0.23-10.31,1.4-15.49,1.28c-3.15-0.07-6.71-0.24-9.81-0.79
						c-3.58-0.64-6.78-1.49-7.18-3.47c-0.63-3.14-7.55,0.09-10.32,1.45c-0.89,0.43-1.72,0.98-2.6,1.41
						c-0.72,0.35-1.36,0.28-2.07,0.51C247.42,350.58,247.09,350.85,246.84,351.21z"/>
				</g>
				<path class="st16" d="M243.89,336.63l15.48-5.54l3.46,15.99c0.4,1.98,3.6,2.83,7.18,3.47c3.1,0.55,6.66,0.72,9.81,0.79
					c1.4,0.03,2.8-0.03,4.19-0.13l0,0c4.62-0.48,9.52,3.45,2.85,6.63c-5.97,2.84-14.43,2.43-20.99,2.8
					c-6.56,0.37-20.11-0.71-19.08-7.74c0,0,0,0,0,0L243.89,336.63z"/>
			</g>
			<g id="XMLID_468_">
				<path id="XMLID_469_" class="st6" d="M251.96,268c6.83,9.67,9.71,73.35,9.71,73.35s-8.19,8.53-15.97,5.49l-19.6-55.48
					L251.96,268z"/>
			</g>
			<path class="st8" d="M227.05,293.9c0,0,14.33-5.32,17.72-9.16c0,0-7.35,10.56-16.33,12.87L227.05,293.9z"/>
		</g>
		<g id="XMLID_123_">
			<g id="XMLID_466_">
				<path id="XMLID_467_" class="st6" d="M169.95,436.66c0.9,0,1.62-0.73,1.62-1.62V330.69c0-0.9-0.73-1.62-1.62-1.62
					c-0.9,0-1.62,0.73-1.62,1.62v104.35C168.33,435.93,169.05,436.66,169.95,436.66z"/>
			</g>
			<g id="XMLID_464_">
				<path id="XMLID_465_" class="st6" d="M105.39,398.68c0.65,0,1.26-0.39,1.51-1.03l32-80.99c0.33-0.83-0.08-1.78-0.91-2.1
					c-0.83-0.33-1.78,0.08-2.1,0.91l-32,80.99c-0.33,0.83,0.08,1.78,0.91,2.1C104.99,398.64,105.19,398.68,105.39,398.68z"/>
			</g>
			<g id="XMLID_462_">
				<path id="XMLID_463_" class="st6" d="M109.23,388.95c0.43,0,0.86-0.17,1.18-0.51l59.54-63l59.43,62.74
					c0.62,0.65,1.64,0.68,2.29,0.06c0.65-0.62,0.68-1.64,0.06-2.29l-60.61-63.98c-0.31-0.32-0.73-0.51-1.18-0.51c0,0,0,0,0,0
					c-0.45,0-0.87,0.18-1.18,0.51l-60.72,64.25c-0.62,0.65-0.59,1.68,0.06,2.29C108.43,388.8,108.83,388.95,109.23,388.95z"/>
			</g>
			<g id="XMLID_460_">
				<path id="XMLID_461_" class="st6" d="M234.51,398.68c0.2,0,0.4-0.04,0.6-0.11c0.83-0.33,1.24-1.27,0.91-2.1l-32-80.99
					c-0.33-0.84-1.27-1.25-2.1-0.91c-0.83,0.33-1.24,1.27-0.91,2.1l32,80.99C233.25,398.29,233.86,398.68,234.51,398.68z"/>
			</g>
			<g id="XMLID_458_">
				<path id="XMLID_459_" class="st1" d="M235.29,294.9c1.16-6.55-4.17-11.65-14.2-18.42c-10.03-6.77-22.86-13.48-29.07-16.33
					c-8.39-3.85-16.98-3.5-27.72,2.02c-14.93,7.67-59.85,34.91-59.85,34.91s67.16,37.92,80.09,36.22
					c12.92-1.7,45.22-22.7,47.78-30.1C234.87,295.81,235.29,294.9,235.29,294.9z"/>
			</g>
			<g id="XMLID_362_" class="st34">
				<path id="XMLID_457_" d="M235.29,294.9c1.16-6.55-4.17-11.65-14.2-18.42c-10.03-6.77-22.86-13.48-29.07-16.33
					c-8.39-3.85-16.98-3.5-27.72,2.02c-14.93,7.67-59.85,34.91-59.85,34.91s67.16,37.92,80.09,36.22
					c12.92-1.7,45.22-22.7,47.78-30.1C234.87,295.81,235.29,294.9,235.29,294.9z"/>
			</g>
			<g id="XMLID_348_">
				<path id="XMLID_361_" class="st1" d="M178.05,325.33c9.64,8.73,19.72,1.22,35.66-9.13c18.04-11.71,21.58-21.29,21.58-21.29
					s0,7.18-1.35,10.54c-1.35,3.37-4.26,7.18-17.28,16.15c-13.01,8.97-22.44,13.46-31.19,15.13l-6.9-0.95"/>
			</g>
			<path id="XMLID_324_" class="st15" d="M213.71,316.19c18.04-11.71,21.58-21.29,21.58-21.29s0,7.18-1.35,10.54
				c-1.35,3.37-4.26,7.18-17.28,16.15c-13.01,8.97-22.44,13.46-31.19,15.13l-6.9-0.95l-0.53-10.45
				C187.69,334.05,197.77,326.54,213.71,316.19z"/>
			<g id="XMLID_281_">
				<path id="XMLID_298_" class="st1" d="M107.59,386.45l-4.23,11.16c-0.03,0.1-0.04,0.19-0.04,0.29c-0.01,0.06-0.01,0.13,0,0.2
					c0.04,0.23,0.33,0.52,0.64,0.7c0.71,0.41,1.86,0.41,2.57,0c0.26-0.15,0.42-0.34,0.5-0.53c0-0.01,0-0.01,0.01-0.02l0.03-0.15
					l3.92-10.47L107.59,386.45z"/>
			</g>
			<g id="XMLID_126_">
				<path id="XMLID_273_" class="st1" d="M232.3,386.45l4.23,11.16c0.03,0.1,0.04,0.19,0.04,0.29c0.01,0.06,0.01,0.13,0,0.2
					c-0.04,0.23-0.33,0.52-0.64,0.7c-0.71,0.41-1.86,0.41-2.57,0c-0.26-0.15-0.42-0.34-0.5-0.53c0-0.01,0-0.01-0.01-0.02l-0.03-0.15
					l-3.92-10.47L232.3,386.45z"/>
			</g>
			<g id="XMLID_124_">
				<path id="XMLID_125_" class="st1" d="M168.08,426.96l0,9.23c0,0.28,0.18,0.55,0.55,0.76c0.73,0.42,1.92,0.42,2.65,0
					c0.37-0.21,0.55-0.49,0.55-0.76v-9.23C170.57,426.33,169.32,426.33,168.08,426.96z"/>
			</g>
		</g>
		<g id="Character_2_">
			<g id="Character_6_">
				<g id="XMLID_118_">
					<g id="XMLID_121_">
						<path id="XMLID_122_" class="st5" d="M124.83,273.93c0,0,42.02-17.97,50.58-22.27c8.56-4.3,24.13-10.59,32.26-8.48
							c5.49,1.43,8.64,3.37,10.58,10.6c0.37,1.36,2.12,14.21,2.12,14.21s-23.37,10.97-44,15.12
							C155.74,287.27,124.83,273.93,124.83,273.93z"/>
					</g>
					<g id="XMLID_119_">
						<path id="XMLID_120_" class="st6" d="M124.83,273.93c-5.2,21.87,8.43,34.13,16.6,38.85c7.17,4.14,25.92,14.14,45.9,6.09
							c13.34-5.38,49.33-29.12,49.33-29.12c3.89-6.31,18.82-8.38,17.72-13.43c-0.28-1.28-0.39-2.64-0.75-4.01
							c-1.82-6.88-8.31-16.48-22.8-13.16c-8.89,2.03-25.49,8.01-40.2,12.63c-3.36,1.06-8.25-3.52-10.97-2.52
							c-6.46,2.37-8.1,13.4-8.1,13.4L124.83,273.93z"/>
					</g>
				</g>
			</g>
			<g id="XMLID_115_">
				<g id="XMLID_116_">
					<polygon id="XMLID_117_" class="st16" points="173.85,178.01 171.42,200.34 151.8,198.82 153.72,174.04 					"/>
				</g>
			</g>
			<g id="XMLID_112_">
				<g id="XMLID_113_">
					<path id="XMLID_114_" class="st1" d="M130.07,263.63c2.14-4.63,4.1-10.21,9.76-19.21c-8.02-25.6-9.16-33.34-8.8-45.02
						c0.19-6.25,9.04-16.73,16.6-15.42c1.97,0.34,3.41,0.43,5.26,0.78c0.24,5.13,10.24,6.62,19.85,3.38c2.72,0.64,6.2,1.2,8.6,2.1
						c3.5,1.3,18.8,17.71,19.93,29.38c0.91,9.48-8.77,17.34-8.77,17.34c0.53,9.98,0.2,23.59-0.04,41.74c0,0-3.03,1.09-7.72-0.98
						c-4.87,7.77-18.36,20.23-33.17,18.57c-25.61-2.87-24.85-21.71-24.85-21.71S128.58,266.84,130.07,263.63z"/>
				</g>
			</g>
			<g id="XMLID_109_">
				<g id="XMLID_110_">
					<path id="XMLID_111_" class="st35" d="M130.07,263.63c2.14-4.63,4.1-10.21,9.76-19.21c-8.02-25.6-9.16-33.34-8.8-45.02
						c0.19-6.25,9.04-16.73,16.6-15.42c1.97,0.34,3.41,0.43,5.26,0.78c0.24,5.13,10.24,6.62,19.85,3.38c2.72,0.64,6.2,1.2,8.6,2.1
						c3.5,1.3,18.8,17.71,19.93,29.38c0.91,9.48-8.77,17.34-8.77,17.34c0.53,9.98,0.2,23.59-0.04,41.74c0,0-3.03,1.09-7.72-0.98
						c-4.87,7.77-18.36,20.23-33.17,18.57c-25.61-2.87-24.85-21.71-24.85-21.71S128.58,266.84,130.07,263.63z"/>
				</g>
			</g>
			<g id="head_2_">
				<g id="XMLID_107_">
					<path id="XMLID_108_" class="st17" d="M188.93,151.62c0,0,5.56,8.91,4.78,9.82c-0.78,0.91-4.49,1.79-4.49,1.79L188.93,151.62z"
					/>
				</g>
				<g id="XMLID_105_">
					<path id="XMLID_106_" class="st16" d="M175.84,130.61c4.36,2.4,11.89,6.83,13.43,23.18c1.57,16.78-2.31,22.49-4.65,24.63
						c-1.58,1.44-9.54,1.76-13.64,0.37c-5.14-1.75-16.22-7.6-21.26-16.37c-5.92-10.32-6.84-23.9,0.45-29.01
						C160.43,126.2,172.15,128.58,175.84,130.61z"/>
				</g>
				<path id="XMLID_104_" class="st17" d="M173.7,179.4c3.65,0.66,7.84,0.34,10.04-0.5l0,0c-6.22-0.15-9.78-2.26-9.78-2.26
					L173.7,179.4z"/>
			</g>
			<path class="st1" d="M193.37,128.85c-1.5-3.07-5-5.15-8.36-4.55c0.85-3.86-1.34-8.17-4.94-9.77c-2.14-0.94-4.58-0.99-6.87-0.55
				c-2.29,0.44-4.46,1.34-6.62,2.23c-4.89,2.02-9.77,4.12-14.7,6.07c-2.42,0.95-4.86,1.88-7.09,3.27
				c-4.48,2.81-7.91,6.92-9.31,12.08c-0.82,3.02-1.05,6.19-0.77,9.3c0.35,4.04,1.52,7.96,3.11,11.68c1.63,3.78,3.9,6.81,6.42,10.04
				c3.32,4.24,9.21,9.03,9.21,9.03c5.87,2.81,12.73,0.91,12.73,0.91c5.15-4.95,8.67-12.42,8.81-12.8c-0.18,0.06-1.6,0.59-3.5,0.31
				c-1.32-0.21-2.88-0.81-4.43-2.24c-3.96-3.62-4.25-10.51,0.96-12.08c5.16-1.58,7.06,5.64,7.06,5.64c3.32-1.43,2.37-5.63,2.76-8.05
				c2.35-1.31,5.99-4.1,7.73-9.37c0.68,1.27,1.3,2.7,1.84,4.34c1.99-1.71,4.06-3.38,5.39-5.69
				C194.46,135.7,194.85,131.92,193.37,128.85z"/>
			<path class="st34" d="M193.37,128.85c-1.5-3.07-5-5.15-8.36-4.55c0.85-3.86-1.34-8.17-4.94-9.77c-2.14-0.94-4.58-0.99-6.87-0.55
				c-2.29,0.44-4.46,1.34-6.62,2.23c-4.89,2.02-9.77,4.12-14.7,6.07c-2.42,0.95-4.86,1.88-7.09,3.27
				c-4.48,2.81-7.91,6.92-9.31,12.08c-0.82,3.02-1.05,6.19-0.77,9.3c0.35,4.04,1.52,7.96,3.11,11.68c1.63,3.78,3.9,6.81,6.42,10.04
				c3.32,4.24,9.21,9.03,9.21,9.03c5.87,2.81,12.73,0.91,12.73,0.91c5.15-4.95,8.67-12.42,8.81-12.8c-0.18,0.06-1.6,0.59-3.5,0.31
				c-1.32-0.21-2.88-0.81-4.43-2.24c-3.96-3.62-4.25-10.51,0.96-12.08c5.16-1.58,7.06,5.64,7.06,5.64c3.32-1.43,2.37-5.63,2.76-8.05
				c2.35-1.31,5.99-4.1,7.73-9.37c0.68,1.27,1.3,2.7,1.84,4.34c1.99-1.71,4.06-3.38,5.39-5.69
				C194.46,135.7,194.85,131.92,193.37,128.85z"/>
		</g>
		<g id="XMLID_99_">
			<path id="XMLID_103_" class="st1" d="M178.58,335.77c-5.49-0.28-9.79-4.31-22.84-9.75c-24.1-10.04-42.18-18.08-49.07-30.7
				c-6.89-12.63-11.76-49.07-10.04-64.85c0.23-2.09,0.64-3.82,1.18-5.23l-1.69-0.25l4.39-3.74l0,0.01c4.5-3.68,11.83-0.4,17.36,2.61
				c15.78,8.59,28.12,16.93,37.88,47.06c7.34,22.66,12.18,43.34,22.31,54.39"/>
			<path id="XMLID_102_" class="st2" d="M97.81,225.24l-1.69-0.25l4.39-3.74l0,0.01c4.5-3.68,11.83-0.4,17.36,2.61
				c15.78,8.59,28.12,16.93,37.88,47.06c7.34,22.66,12.18,43.34,22.31,54.39l0.53,10.45c-5.49-0.28-9.79-4.31-22.84-9.75
				c-24.1-10.04-42.18-18.08-49.07-30.7c-6.89-12.63-11.76-49.07-10.04-64.85C96.85,228.38,97.26,226.66,97.81,225.24z"/>
			<g id="XMLID_100_">
				<path id="XMLID_101_" class="st1" d="M113.29,227.75c15.78,8.59,28.12,16.93,37.88,47.06c9.76,30.13,15.09,56.75,34.32,61.91
					c0,0-8.69,3.45-35.33-7.81c-8.48-3.58-18.76-10.12-25.52-13.91c-13.24-7.43-21.27-13.52-22.54-15.8
					c-7-12.56-11.77-49.07-10.04-64.85C93.77,218.57,105.38,223.45,113.29,227.75z"/>
			</g>
		</g>
		<g id="Arm_2_">
			<g id="XMLID_83_">
				<g id="XMLID_84_">
					<g id="XMLID_96_">
						<g id="XMLID_97_">
							<path id="XMLID_98_" class="st7" d="M271.68,237.83c0.1,0.03,0.22-0.01,0.27-0.1l1.2-1.98c0.07-0.11,0.03-0.26-0.08-0.33
								c-0.12-0.07-0.26-0.03-0.33,0.08l-1.2,1.98c-0.07,0.11-0.03,0.26,0.08,0.33C271.64,237.82,271.66,237.82,271.68,237.83z"/>
						</g>
					</g>
					<g id="XMLID_87_">
						<g id="XMLID_94_">
							<path id="XMLID_95_" class="st1" d="M277.37,233.45l-4.16,3.2c-0.61,0.47-1.47-0.1-1.27-0.85l1.36-5.11L277.37,233.45z"/>
						</g>
						<g id="XMLID_92_" class="st14">
							<path id="XMLID_93_" d="M277.37,233.45l-4.16,3.2c-0.61,0.47-1.47-0.1-1.27-0.85l1.36-5.11L277.37,233.45z"/>
						</g>
						<g id="XMLID_90_">
							<path id="XMLID_91_" class="st1" d="M290.07,205.44c0.32-0.4,0.83-0.47,1.39-0.32c1.5,0.39,3.46,2.15,2.61,3.22l-16.71,25.11
								c-0.72,0.3-1.95-0.04-2.88-0.8c-0.61-0.5-1.08-1.17-1.19-1.95L290.07,205.44z"/>
						</g>
						<g id="XMLID_88_">
							<path id="XMLID_89_" class="st1" d="M290.07,205.44c0.32-0.4,0.83-0.47,1.39-0.32c1.5,0.39,3.46,2.15,2.61,3.22l-16.71,25.11
								c-0.72,0.3-1.95-0.04-2.88-0.8c-0.61-0.5-1.08-1.17-1.19-1.95L290.07,205.44z"/>
						</g>
						<path class="st1" d="M291.46,205.12c-0.56-0.15-1.07-0.08-1.39,0.32c-0.25,0.38,0.12,1.45,1.25,2.24
							c1.39,0.96,2.49,0.98,2.81,0.56C294.79,207.15,292.91,205.5,291.46,205.12z"/>
						<path class="st14" d="M291.46,205.12c-0.56-0.15-1.07-0.08-1.39,0.32c-0.25,0.38,0.12,1.45,1.25,2.24
							c1.39,0.96,2.49,0.98,2.81,0.56C294.79,207.15,292.91,205.5,291.46,205.12z"/>
					</g>
					<g id="XMLID_85_">
						<path id="XMLID_86_" class="st5" d="M292.82,203.87c0.31-0.48,0.96-0.62,1.44-0.3c0.48,0.31,0.62,0.96,0.3,1.44l-1.33,2l0,0
							c-0.08,0.13-0.25,0.2-0.49,0.19c-0.47-0.03-1.02-0.39-1.23-0.81c-0.11-0.21-0.11-0.39-0.02-0.52l0,0L292.82,203.87z"/>
					</g>
				</g>
			</g>
			<path class="st16" d="M283.45,224.31c0,0-1.02,1.58-1.89,2.85c-0.71,1.02-1.1,1.49-1.6,1.61c-1.04,0.24-3.29-0.47-4.07-1.96
				l1.32-1.98c-1.49-0.15-3.2-0.18-4.02,0.13c-1.83,0.69-4.05,1.77-5.44,4.92c-2.01,4.56-1.62,5.28-7.28,5.68
				c-5.66,0.4-35.57,0.9-35.57,0.9l0,0c-3.56-4.13-16.68-19.36-21.74-25.39c-5.88-7.01-16.95-22.39-21.81-20.84
				c-4.83,1.57-9.3,16.21-2.8,27.5c5.76,10,25.73,27.75,33.88,34.93c0.86,0.8,1.65,1.5,2.38,2.1c0.04,0.04,0.1,0.09,0.14,0.12
				l0-0.01c4.98,4.07,7.16,3.57,13.14,2.42c7.14-1.37,40.85-8.22,47.6-11.21c6.75-2.99,12.87-11.09,12.86-15.21
				C288.52,226.78,283.45,224.31,283.45,224.31z"/>
		</g>
	</g>
</g>
	<g id="Icons">
	<g id="Ai_Icon_2_">
		<g id="XMLID_21_">
			<path id="XMLID_24_" class="st5" d="M75.23,47.88c0-2.39-1.68-5.3-3.75-6.49l0,0.01c-2.07-1.2-5.43-1.2-7.5,0L35.51,57.7
				c-2.07,1.2-3.75,4.1-3.75,6.49v30.74c0,2.39,1.68,5.3,3.75,6.49l0-0.01c2.07,1.2,5.43,1.2,7.5,0l28.83-16.56
				c3.37-1.92,3.4-3.85,3.4-6.24L75.23,47.88z"/>
			<path id="XMLID_23_" class="st7" d="M31.76,94.93c0,2.39,1.68,5.3,3.75,6.49l0-0.01c1.87,1.08,4.78,1.19,6.86,0.31
				c-1.76,0.67-3.11-0.34-3.11-2.48l0-30.74c0-1.2,0.42-2.52,1.1-3.69l-7.49-4.32c-0.68,1.17-1.1,2.5-1.1,3.69V94.93z"/>
			<path id="XMLID_22_" class="st6" d="M75.11,46.82c-0.44-1.59-1.89-2.1-3.62-1.1L43,62.02c-1.03,0.59-1.98,1.61-2.64,2.8
				l-7.49-4.32c0.68-1.19,1.61-2.2,2.64-2.8L63.98,41.4c2.08-1.19,5.44-1.19,7.5,0l0,0C73.25,42.41,74.74,44.68,75.11,46.82z"/>
		</g>
		<g>
			<path class="st1" d="M67.57,55.55c0,1.63-0.8,3.42-2.08,4.16c-1.21,0.7-2.03-0.16-2-1.8c-0.03-1.7,0.79-3.46,2.03-4.17
				C66.77,53.02,67.54,53.85,67.57,55.55z"/>
			<polygon class="st1" points="67.44,60.93 67.09,80.17 63.07,82.49 63.43,63.25 			"/>
			<path class="st1" d="M56.48,60.03l-5.05,2.92l-5.22,29.26l4-2.31l1.22-7.44l4.88-2.82l1.32,5.97l4.14-2.39L56.48,60.03z
				 M51.98,77.7c0,0,1.54-9.95,1.79-11.67L53.82,66c0.25,1.43,1.93,9.52,1.93,9.52L51.98,77.7z"/>
		</g>
	</g>
		<g id="Ps_Icon_2_">
		<g id="XMLID_17_">
			<path id="XMLID_20_" class="st5" d="M173.51,48.57c0-2.39-1.68-5.3-3.75-6.49l0,0.01c-2.07-1.2-5.43-1.2-7.5,0l-28.48,16.3
				c-2.07,1.2-3.75,4.1-3.75,6.49v30.74c0,2.39,1.68,5.3,3.75,6.49l0-0.01c2.07,1.2,5.43,1.2,7.5,0l28.83-16.56
				c3.37-1.92,3.4-3.85,3.4-6.24L173.51,48.57z"/>
			<path id="XMLID_19_" class="st7" d="M130.04,95.62c0,2.39,1.68,5.3,3.75,6.49l0-0.01c1.87,1.08,4.78,1.19,6.86,0.31
				c-1.76,0.67-3.11-0.34-3.11-2.48l0-30.74c0-1.2,0.42-2.52,1.1-3.69l-7.49-4.32c-0.68,1.17-1.1,2.5-1.1,3.69V95.62z"/>
			<path id="XMLID_18_" class="st6" d="M173.38,47.5c-0.44-1.59-1.89-2.1-3.62-1.1l-28.48,16.31c-1.03,0.59-1.98,1.61-2.64,2.8
				l-7.49-4.32c0.68-1.19,1.61-2.2,2.64-2.8l28.47-16.31c2.08-1.19,5.44-1.19,7.5,0l0.01,0C171.53,43.1,173.02,45.37,173.38,47.5z"
			/>
		</g>
			<path class="st36" d="M167.28,74.54c0,3.42-1.76,6.94-5.16,8.91c-1.56,0.9-2.95,1.18-3.84,0.94l0.66-4.46
			c0.68,0.24,2.09,0.18,3.19-0.46c1.11-0.64,1.58-1.51,1.58-2.45c0-0.93-0.37-1.17-1.75-1.09c-2.46,0.15-3.41-1.36-3.39-3.55
			c0-3.41,1.9-7.09,4.84-8.79c1.39-0.8,2.63-1.03,3.36-0.89l-0.66,4.31c-0.54-0.14-1.56-0.15-2.58,0.44
			c-0.9,0.52-1.41,1.38-1.41,2.31c0,0.86,0.46,1.04,1.91,1C166.31,70.64,167.25,71.86,167.28,74.54z"/>
			<path class="st36" d="M155.81,63.19c-1.09-0.73-2.72-0.45-5.01,0.87c-2.26,1.31-3.87,2.46-5.01,3.42v24.91l3.67-2.12v-9.03
			c0.34-0.12,0.78-0.35,1.26-0.63c2.19-1.26,4.07-3.17,5.32-5.72c0.98-1.99,1.51-4.4,1.51-6.87
			C157.57,65.55,156.87,63.85,155.81,63.19z M150.7,76.25c-0.53,0.31-0.92,0.49-1.23,0.57v-7.45c0.26-0.26,0.78-0.68,1.52-1.11
			c1.85-1.07,2.9-0.29,2.91,2.02C153.9,72.87,152.67,75.11,150.7,76.25z"/>
	</g>
		<g id="Sketch_Icon_2_">
		<g id="XMLID_13_">
			<path id="XMLID_16_" class="st5" d="M113.77,102.15c0-2.39-1.68-5.3-3.75-6.49l0,0.01c-2.07-1.2-5.43-1.2-7.5,0l-28.48,16.3
				c-2.07,1.2-3.75,4.1-3.75,6.49v30.74c0,2.39,1.68,5.3,3.75,6.49l0-0.01c2.07,1.2,5.43,1.2,7.5,0l28.83-16.56
				c3.37-1.92,3.4-3.85,3.4-6.24L113.77,102.15z"/>
			<path id="XMLID_15_" class="st7" d="M70.3,149.2c0,2.39,1.68,5.3,3.75,6.49l0-0.01c1.87,1.08,4.78,1.19,6.86,0.31
				c-1.76,0.67-3.11-0.34-3.11-2.48l0-30.74c0-1.2,0.42-2.52,1.1-3.69l-7.49-4.32c-0.68,1.17-1.1,2.5-1.1,3.69V149.2z"/>
			<path id="XMLID_14_" class="st6" d="M113.64,101.09c-0.44-1.59-1.89-2.1-3.62-1.1l-28.48,16.31c-1.03,0.59-1.98,1.61-2.64,2.8
				l-7.49-4.32c0.68-1.19,1.61-2.2,2.64-2.8l28.47-16.31c2.08-1.19,5.44-1.19,7.5,0l0.01,0C111.79,96.68,113.28,98.95,113.64,101.09
				z"/>
		</g>
			<polygon class="st1" points="88.94,120.57 88.94,126.52 93.9,116.47 		"/>
			<polygon class="st1" points="102.22,112.76 96.7,114.57 102.22,119.38 		"/>
			<polygon class="st1" points="101.81,120.54 95.76,115.25 89.7,127.53 90.15,127.27 95.29,124.3 		"/>
			<polygon class="st1" points="84.97,131.57 93.42,140.08 88.14,129.74 		"/>
			<polygon class="st1" points="98.95,134.41 105.84,119.52 103.26,121.01 		"/>
			<polygon class="st1" points="95.46,141.57 101.79,121.86 89.12,129.18 		"/>
			<polygon class="st1" points="87.8,123.33 85.16,130.15 87.75,128.65 87.8,128.63 		"/>
			<polygon class="st1" points="103.47,119.58 106.29,117.95 103.35,113.77 103.35,119.65 		"/>
	</g>
</g>
</svg>
