<?xml version="1.0" encoding="UTF-8"?>
<svg id="Layer_2" data-name="Layer 2" xmlns="http://www.w3.org/2000/svg" viewBox="0 0 1239.26 1210.59">
  <defs>
    <style>
      .cls-1 {
        fill: #30a8ff;
      }

      .cls-1, .cls-2 {
        stroke-width: 0px;
      }

      .cls-2 {
        fill: #001e36;
      }
    </style>
  </defs>
  <g id="_Ñëîé_1" data-name="Ñëîé 1">
    <g>
      <path class="cls-2" d="m222.56,0h794.13c122.84,0,222.56,99.73,222.56,222.56v765.47c0,122.84-99.73,222.56-222.56,222.56H222.56c-122.84,0-222.56-99.73-222.56-222.56V222.56C0,99.73,99.73,0,222.56,0Z"/>
      <path class="cls-1" d="m486.06,310.14h-201.98v538.19h113.37v-168.1h88.61c51.1,0,97.36-20.72,130.85-54.2,33.48-33.49,54.2-79.75,54.2-130.85,0-102.19-82.85-185.04-185.04-185.04Zm47.41,246.78c-15.81,15.79-37.63,25.57-61.74,25.57h-74.28v-174.62h74.28c48.22,0,87.31,39.09,87.31,87.31,0,24.11-9.77,45.93-25.57,61.74Z"/>
      <path class="cls-1" d="m1024.9,727.66c0,35.72-16.66,69.81-42.95,93.63-29.63,26.85-70.78,38.3-109.9,41.28-4.69.36-9.38.58-14.08.68-43.47.89-89.17-8.36-128.67-26.61-.42-.19-.84-.39-1.26-.58.07-31.69.13-63.37.2-95.06,0,1.73,31.42,9.33,35.32,10.61,35.86,11.76,78.66,20.57,116.44,15.73,7.98-1.02,16.18-3.01,22.36-8.15,23.3-19.35-.32-43.42-19.31-52.66-20.6-10.01-42.78-16.34-63.81-25.39-19.94-8.57-38.96-19.7-54.84-34.5-52.54-48.96-50.5-131.17,3.05-178.72,30.32-26.92,71.26-35.47,110.79-37.21,40.91-1.8,82.21,5.49,120.07,21.07,1.45.6,2.99,1.29,3.8,2.63.69,1.15.71,2.56.71,3.89.04,32.35.08,64.71.11,97.06-6.17-5.27-14.6-7.45-21.92-10.65-7.93-3.47-16.03-6.52-24.27-9.17-29.18-9.35-67.07-17.98-97.02-7.72-11.01,3.77-19.21,11.61-19.21,23.8,0,18.85,18.48,27.92,33.58,34.81,18.71,8.53,38.66,13.72,57.32,22.37,48.44,22.47,93.47,61.01,93.47,118.83Z"/>
    </g>
  </g>
</svg>