<?xml version="1.0" encoding="UTF-8"?>
<svg id="Layer_2" data-name="Layer 2" xmlns="http://www.w3.org/2000/svg" viewBox="0 0 1239.26 1210.59">
  <defs>
    <style>
      .cls-1 {
        fill: #00005c;
      }

      .cls-1, .cls-2 {
        stroke-width: 0px;
      }

      .cls-2 {
        fill: #9a99ff;
      }
    </style>
  </defs>
  <g id="_Ñëîé_1" data-name="Ñëîé 1">
    <g>
      <path class="cls-1" d="m222.56,0h794.13c122.84,0,222.56,99.73,222.56,222.56v765.47c0,122.84-99.73,222.56-222.56,222.56H222.56c-122.84,0-222.56-99.73-222.56-222.56V222.56C0,99.73,99.73,0,222.56,0Z"/>
      <g>
        <path class="cls-2" d="m465.54,336.2h-201.98v538.19h113.37v-168.1h88.61c51.1,0,97.36-20.72,130.85-54.2,33.48-33.49,54.2-79.75,54.2-130.85,0-102.19-82.85-185.04-185.04-185.04Zm47.41,246.78c-15.81,15.79-37.63,25.57-61.74,25.57h-74.28v-174.62h74.28c48.22,0,87.31,39.09,87.31,87.31,0,24.11-9.77,45.93-25.57,61.74Z"/>
        <path class="cls-2" d="m831.71,514.88v-52.28h-108.16v411.78h108.16v-234.29c0-19.61,9.45-38.13,25.58-49.28,43.5-30.04,118.41-25.93,118.41-25.93v-113.37c-93.82,0-143.99,63.35-143.99,63.35Z"/>
      </g>
    </g>
  </g>
</svg>